<?xml version="1.0" encoding="utf-8"?>
<svg xmlns="http://www.w3.org/2000/svg" xmlns:xlink="http://www.w3.org/1999/xlink" width="600" height="400" viewBox="0 0 2400 1600">
<defs>
  <clipPath id="clip600">
    <rect x="0" y="0" width="2400" height="1600"/>
  </clipPath>
</defs>
<path clip-path="url(#clip600)" d="
M0 1600 L2400 1600 L2400 0 L0 0  Z
  " fill="#ffffff" fill-rule="evenodd" fill-opacity="1"/>
<defs>
  <clipPath id="clip601">
    <rect x="480" y="0" width="1681" height="1600"/>
  </clipPath>
</defs>
<path clip-path="url(#clip600)" d="
M186.274 1486.45 L2352.76 1486.45 L2352.76 47.2441 L186.274 47.2441  Z
  " fill="#ffffff" fill-rule="evenodd" fill-opacity="1"/>
<defs>
  <clipPath id="clip602">
    <rect x="186" y="47" width="2167" height="1440"/>
  </clipPath>
</defs>
<polyline clip-path="url(#clip602)" style="stroke:#000000; stroke-linecap:butt; stroke-linejoin:round; stroke-width:2; stroke-opacity:0.1; fill:none" points="
  240.754,1486.45 240.754,47.2441 
  "/>
<polyline clip-path="url(#clip602)" style="stroke:#000000; stroke-linecap:butt; stroke-linejoin:round; stroke-width:2; stroke-opacity:0.1; fill:none" points="
  924.316,1486.45 924.316,47.2441 
  "/>
<polyline clip-path="url(#clip602)" style="stroke:#000000; stroke-linecap:butt; stroke-linejoin:round; stroke-width:2; stroke-opacity:0.1; fill:none" points="
  1607.88,1486.45 1607.88,47.2441 
  "/>
<polyline clip-path="url(#clip602)" style="stroke:#000000; stroke-linecap:butt; stroke-linejoin:round; stroke-width:2; stroke-opacity:0.1; fill:none" points="
  2291.44,1486.45 2291.44,47.2441 
  "/>
<polyline clip-path="url(#clip600)" style="stroke:#000000; stroke-linecap:butt; stroke-linejoin:round; stroke-width:4; stroke-opacity:1; fill:none" points="
  186.274,1486.45 2352.76,1486.45 
  "/>
<polyline clip-path="url(#clip600)" style="stroke:#000000; stroke-linecap:butt; stroke-linejoin:round; stroke-width:4; stroke-opacity:1; fill:none" points="
  240.754,1486.45 240.754,1467.55 
  "/>
<polyline clip-path="url(#clip600)" style="stroke:#000000; stroke-linecap:butt; stroke-linejoin:round; stroke-width:4; stroke-opacity:1; fill:none" points="
  924.316,1486.45 924.316,1467.55 
  "/>
<polyline clip-path="url(#clip600)" style="stroke:#000000; stroke-linecap:butt; stroke-linejoin:round; stroke-width:4; stroke-opacity:1; fill:none" points="
  1607.88,1486.45 1607.88,1467.55 
  "/>
<polyline clip-path="url(#clip600)" style="stroke:#000000; stroke-linecap:butt; stroke-linejoin:round; stroke-width:4; stroke-opacity:1; fill:none" points="
  2291.44,1486.45 2291.44,1467.55 
  "/>
<path clip-path="url(#clip600)" d="M240.754 1517.37 Q237.143 1517.37 235.314 1520.93 Q233.509 1524.47 233.509 1531.6 Q233.509 1538.71 235.314 1542.27 Q237.143 1545.82 240.754 1545.82 Q244.388 1545.82 246.194 1542.27 Q248.022 1538.71 248.022 1531.6 Q248.022 1524.47 246.194 1520.93 Q244.388 1517.37 240.754 1517.37 M240.754 1513.66 Q246.564 1513.66 249.62 1518.27 Q252.698 1522.85 252.698 1531.6 Q252.698 1540.33 249.62 1544.94 Q246.564 1549.52 240.754 1549.52 Q234.944 1549.52 231.865 1544.94 Q228.81 1540.33 228.81 1531.6 Q228.81 1522.85 231.865 1518.27 Q234.944 1513.66 240.754 1513.66 Z" fill="#000000" fill-rule="evenodd" fill-opacity="1" /><path clip-path="url(#clip600)" d="M883.923 1544.91 L891.562 1544.91 L891.562 1518.55 L883.251 1520.21 L883.251 1515.95 L891.515 1514.29 L896.191 1514.29 L896.191 1544.91 L903.83 1544.91 L903.83 1548.85 L883.923 1548.85 L883.923 1544.91 Z" fill="#000000" fill-rule="evenodd" fill-opacity="1" /><path clip-path="url(#clip600)" d="M923.274 1517.37 Q919.663 1517.37 917.835 1520.93 Q916.029 1524.47 916.029 1531.6 Q916.029 1538.71 917.835 1542.27 Q919.663 1545.82 923.274 1545.82 Q926.909 1545.82 928.714 1542.27 Q930.543 1538.71 930.543 1531.6 Q930.543 1524.47 928.714 1520.93 Q926.909 1517.37 923.274 1517.37 M923.274 1513.66 Q929.085 1513.66 932.14 1518.27 Q935.219 1522.85 935.219 1531.6 Q935.219 1540.33 932.14 1544.94 Q929.085 1549.52 923.274 1549.52 Q917.464 1549.52 914.386 1544.94 Q911.33 1540.33 911.33 1531.6 Q911.33 1522.85 914.386 1518.27 Q917.464 1513.66 923.274 1513.66 Z" fill="#000000" fill-rule="evenodd" fill-opacity="1" /><path clip-path="url(#clip600)" d="M953.436 1517.37 Q949.825 1517.37 947.996 1520.93 Q946.191 1524.47 946.191 1531.6 Q946.191 1538.71 947.996 1542.27 Q949.825 1545.82 953.436 1545.82 Q957.071 1545.82 958.876 1542.27 Q960.705 1538.71 960.705 1531.6 Q960.705 1524.47 958.876 1520.93 Q957.071 1517.37 953.436 1517.37 M953.436 1513.66 Q959.246 1513.66 962.302 1518.27 Q965.381 1522.85 965.381 1531.6 Q965.381 1540.33 962.302 1544.94 Q959.246 1549.52 953.436 1549.52 Q947.626 1549.52 944.547 1544.94 Q941.492 1540.33 941.492 1531.6 Q941.492 1522.85 944.547 1518.27 Q947.626 1513.66 953.436 1513.66 Z" fill="#000000" fill-rule="evenodd" fill-opacity="1" /><path clip-path="url(#clip600)" d="M1571.57 1544.91 L1587.89 1544.91 L1587.89 1548.85 L1565.95 1548.85 L1565.95 1544.91 Q1568.61 1542.16 1573.19 1537.53 Q1577.8 1532.88 1578.98 1531.53 Q1581.22 1529.01 1582.1 1527.27 Q1583.01 1525.51 1583.01 1523.82 Q1583.01 1521.07 1581.06 1519.33 Q1579.14 1517.6 1576.04 1517.6 Q1573.84 1517.6 1571.39 1518.36 Q1568.95 1519.13 1566.18 1520.68 L1566.18 1515.95 Q1569 1514.82 1571.45 1514.24 Q1573.91 1513.66 1575.95 1513.66 Q1581.32 1513.66 1584.51 1516.35 Q1587.7 1519.03 1587.7 1523.52 Q1587.7 1525.65 1586.89 1527.57 Q1586.11 1529.47 1584 1532.07 Q1583.42 1532.74 1580.32 1535.95 Q1577.22 1539.15 1571.57 1544.91 Z" fill="#000000" fill-rule="evenodd" fill-opacity="1" /><path clip-path="url(#clip600)" d="M1607.7 1517.37 Q1604.09 1517.37 1602.26 1520.93 Q1600.46 1524.47 1600.46 1531.6 Q1600.46 1538.71 1602.26 1542.27 Q1604.09 1545.82 1607.7 1545.82 Q1611.34 1545.82 1613.14 1542.27 Q1614.97 1538.71 1614.97 1531.6 Q1614.97 1524.47 1613.14 1520.93 Q1611.34 1517.37 1607.7 1517.37 M1607.7 1513.66 Q1613.51 1513.66 1616.57 1518.27 Q1619.65 1522.85 1619.65 1531.6 Q1619.65 1540.33 1616.57 1544.94 Q1613.51 1549.52 1607.7 1549.52 Q1601.89 1549.52 1598.82 1544.94 Q1595.76 1540.33 1595.76 1531.6 Q1595.76 1522.85 1598.82 1518.27 Q1601.89 1513.66 1607.7 1513.66 Z" fill="#000000" fill-rule="evenodd" fill-opacity="1" /><path clip-path="url(#clip600)" d="M1637.87 1517.37 Q1634.26 1517.37 1632.43 1520.93 Q1630.62 1524.47 1630.62 1531.6 Q1630.62 1538.71 1632.43 1542.27 Q1634.26 1545.82 1637.87 1545.82 Q1641.5 1545.82 1643.31 1542.27 Q1645.13 1538.71 1645.13 1531.6 Q1645.13 1524.47 1643.31 1520.93 Q1641.5 1517.37 1637.87 1517.37 M1637.87 1513.66 Q1643.68 1513.66 1646.73 1518.27 Q1649.81 1522.85 1649.81 1531.6 Q1649.81 1540.33 1646.73 1544.94 Q1643.68 1549.52 1637.87 1549.52 Q1632.06 1549.52 1628.98 1544.94 Q1625.92 1540.33 1625.92 1531.6 Q1625.92 1522.85 1628.98 1518.27 Q1632.06 1513.66 1637.87 1513.66 Z" fill="#000000" fill-rule="evenodd" fill-opacity="1" /><path clip-path="url(#clip600)" d="M2265.2 1530.21 Q2268.56 1530.93 2270.43 1533.2 Q2272.33 1535.47 2272.33 1538.8 Q2272.33 1543.92 2268.81 1546.72 Q2265.29 1549.52 2258.81 1549.52 Q2256.64 1549.52 2254.32 1549.08 Q2252.03 1548.66 2249.58 1547.81 L2249.58 1543.29 Q2251.52 1544.43 2253.84 1545.01 Q2256.15 1545.58 2258.67 1545.58 Q2263.07 1545.58 2265.36 1543.85 Q2267.68 1542.11 2267.68 1538.8 Q2267.68 1535.75 2265.53 1534.03 Q2263.4 1532.3 2259.58 1532.3 L2255.55 1532.3 L2255.55 1528.45 L2259.76 1528.45 Q2263.21 1528.45 2265.04 1527.09 Q2266.87 1525.7 2266.87 1523.11 Q2266.87 1520.45 2264.97 1519.03 Q2263.1 1517.6 2259.58 1517.6 Q2257.66 1517.6 2255.46 1518.01 Q2253.26 1518.43 2250.62 1519.31 L2250.62 1515.14 Q2253.28 1514.4 2255.6 1514.03 Q2257.93 1513.66 2259.99 1513.66 Q2265.32 1513.66 2268.42 1516.09 Q2271.52 1518.5 2271.52 1522.62 Q2271.52 1525.49 2269.88 1527.48 Q2268.23 1529.45 2265.2 1530.21 Z" fill="#000000" fill-rule="evenodd" fill-opacity="1" /><path clip-path="url(#clip600)" d="M2291.2 1517.37 Q2287.59 1517.37 2285.76 1520.93 Q2283.95 1524.47 2283.95 1531.6 Q2283.95 1538.71 2285.76 1542.27 Q2287.59 1545.82 2291.2 1545.82 Q2294.83 1545.82 2296.64 1542.27 Q2298.47 1538.71 2298.47 1531.6 Q2298.47 1524.47 2296.64 1520.93 Q2294.83 1517.37 2291.2 1517.37 M2291.2 1513.66 Q2297.01 1513.66 2300.06 1518.27 Q2303.14 1522.85 2303.14 1531.6 Q2303.14 1540.33 2300.06 1544.94 Q2297.01 1549.52 2291.2 1549.52 Q2285.39 1549.52 2282.31 1544.94 Q2279.25 1540.33 2279.25 1531.6 Q2279.25 1522.85 2282.31 1518.27 Q2285.39 1513.66 2291.2 1513.66 Z" fill="#000000" fill-rule="evenodd" fill-opacity="1" /><path clip-path="url(#clip600)" d="M2321.36 1517.37 Q2317.75 1517.37 2315.92 1520.93 Q2314.11 1524.47 2314.11 1531.6 Q2314.11 1538.71 2315.92 1542.27 Q2317.75 1545.82 2321.36 1545.82 Q2324.99 1545.82 2326.8 1542.27 Q2328.63 1538.71 2328.63 1531.6 Q2328.63 1524.47 2326.8 1520.93 Q2324.99 1517.37 2321.36 1517.37 M2321.36 1513.66 Q2327.17 1513.66 2330.22 1518.27 Q2333.3 1522.85 2333.3 1531.6 Q2333.3 1540.33 2330.22 1544.94 Q2327.17 1549.52 2321.36 1549.52 Q2315.55 1549.52 2312.47 1544.94 Q2309.41 1540.33 2309.41 1531.6 Q2309.41 1522.85 2312.47 1518.27 Q2315.55 1513.66 2321.36 1513.66 Z" fill="#000000" fill-rule="evenodd" fill-opacity="1" /><polyline clip-path="url(#clip602)" style="stroke:#000000; stroke-linecap:butt; stroke-linejoin:round; stroke-width:2; stroke-opacity:0.1; fill:none" points="
  186.274,1411.96 2352.76,1411.96 
  "/>
<polyline clip-path="url(#clip602)" style="stroke:#000000; stroke-linecap:butt; stroke-linejoin:round; stroke-width:2; stroke-opacity:0.1; fill:none" points="
  186.274,1122.27 2352.76,1122.27 
  "/>
<polyline clip-path="url(#clip602)" style="stroke:#000000; stroke-linecap:butt; stroke-linejoin:round; stroke-width:2; stroke-opacity:0.1; fill:none" points="
  186.274,832.59 2352.76,832.59 
  "/>
<polyline clip-path="url(#clip602)" style="stroke:#000000; stroke-linecap:butt; stroke-linejoin:round; stroke-width:2; stroke-opacity:0.1; fill:none" points="
  186.274,542.906 2352.76,542.906 
  "/>
<polyline clip-path="url(#clip602)" style="stroke:#000000; stroke-linecap:butt; stroke-linejoin:round; stroke-width:2; stroke-opacity:0.1; fill:none" points="
  186.274,253.222 2352.76,253.222 
  "/>
<polyline clip-path="url(#clip600)" style="stroke:#000000; stroke-linecap:butt; stroke-linejoin:round; stroke-width:4; stroke-opacity:1; fill:none" points="
  186.274,1486.45 186.274,47.2441 
  "/>
<polyline clip-path="url(#clip600)" style="stroke:#000000; stroke-linecap:butt; stroke-linejoin:round; stroke-width:4; stroke-opacity:1; fill:none" points="
  186.274,1411.96 205.172,1411.96 
  "/>
<polyline clip-path="url(#clip600)" style="stroke:#000000; stroke-linecap:butt; stroke-linejoin:round; stroke-width:4; stroke-opacity:1; fill:none" points="
  186.274,1122.27 205.172,1122.27 
  "/>
<polyline clip-path="url(#clip600)" style="stroke:#000000; stroke-linecap:butt; stroke-linejoin:round; stroke-width:4; stroke-opacity:1; fill:none" points="
  186.274,832.59 205.172,832.59 
  "/>
<polyline clip-path="url(#clip600)" style="stroke:#000000; stroke-linecap:butt; stroke-linejoin:round; stroke-width:4; stroke-opacity:1; fill:none" points="
  186.274,542.906 205.172,542.906 
  "/>
<polyline clip-path="url(#clip600)" style="stroke:#000000; stroke-linecap:butt; stroke-linejoin:round; stroke-width:4; stroke-opacity:1; fill:none" points="
  186.274,253.222 205.172,253.222 
  "/>
<path clip-path="url(#clip600)" d="M63.9319 1397.76 Q60.3208 1397.76 58.4921 1401.32 Q56.6865 1404.86 56.6865 1411.99 Q56.6865 1419.1 58.4921 1422.66 Q60.3208 1426.21 63.9319 1426.21 Q67.5661 1426.21 69.3717 1422.66 Q71.2004 1419.1 71.2004 1411.99 Q71.2004 1404.86 69.3717 1401.32 Q67.5661 1397.76 63.9319 1397.76 M63.9319 1394.05 Q69.742 1394.05 72.7976 1398.66 Q75.8763 1403.24 75.8763 1411.99 Q75.8763 1420.72 72.7976 1425.33 Q69.742 1429.91 63.9319 1429.91 Q58.1217 1429.91 55.043 1425.33 Q51.9875 1420.72 51.9875 1411.99 Q51.9875 1403.24 55.043 1398.66 Q58.1217 1394.05 63.9319 1394.05 Z" fill="#000000" fill-rule="evenodd" fill-opacity="1" /><path clip-path="url(#clip600)" d="M84.0938 1423.36 L88.978 1423.36 L88.978 1429.24 L84.0938 1429.24 L84.0938 1423.36 Z" fill="#000000" fill-rule="evenodd" fill-opacity="1" /><path clip-path="url(#clip600)" d="M109.163 1397.76 Q105.552 1397.76 103.723 1401.32 Q101.918 1404.86 101.918 1411.99 Q101.918 1419.1 103.723 1422.66 Q105.552 1426.21 109.163 1426.21 Q112.797 1426.21 114.603 1422.66 Q116.432 1419.1 116.432 1411.99 Q116.432 1404.86 114.603 1401.32 Q112.797 1397.76 109.163 1397.76 M109.163 1394.05 Q114.973 1394.05 118.029 1398.66 Q121.107 1403.24 121.107 1411.99 Q121.107 1420.72 118.029 1425.33 Q114.973 1429.91 109.163 1429.91 Q103.353 1429.91 100.274 1425.33 Q97.2187 1420.72 97.2187 1411.99 Q97.2187 1403.24 100.274 1398.66 Q103.353 1394.05 109.163 1394.05 Z" fill="#000000" fill-rule="evenodd" fill-opacity="1" /><path clip-path="url(#clip600)" d="M129.371 1394.68 L147.728 1394.68 L147.728 1398.61 L133.654 1398.61 L133.654 1407.09 Q134.672 1406.74 135.691 1406.58 Q136.709 1406.39 137.728 1406.39 Q143.515 1406.39 146.894 1409.56 Q150.274 1412.73 150.274 1418.15 Q150.274 1423.73 146.802 1426.83 Q143.33 1429.91 137.01 1429.91 Q134.834 1429.91 132.566 1429.54 Q130.32 1429.17 127.913 1428.43 L127.913 1423.73 Q129.996 1424.86 132.219 1425.42 Q134.441 1425.98 136.918 1425.98 Q140.922 1425.98 143.26 1423.87 Q145.598 1421.76 145.598 1418.15 Q145.598 1414.54 143.26 1412.43 Q140.922 1410.33 136.918 1410.33 Q135.043 1410.33 133.168 1410.74 Q131.316 1411.16 129.371 1412.04 L129.371 1394.68 Z" fill="#000000" fill-rule="evenodd" fill-opacity="1" /><path clip-path="url(#clip600)" d="M62.9365 1108.07 Q59.3254 1108.07 57.4967 1111.64 Q55.6912 1115.18 55.6912 1122.31 Q55.6912 1129.42 57.4967 1132.98 Q59.3254 1136.52 62.9365 1136.52 Q66.5707 1136.52 68.3763 1132.98 Q70.205 1129.42 70.205 1122.31 Q70.205 1115.18 68.3763 1111.64 Q66.5707 1108.07 62.9365 1108.07 M62.9365 1104.37 Q68.7467 1104.37 71.8022 1108.98 Q74.8809 1113.56 74.8809 1122.31 Q74.8809 1131.04 71.8022 1135.64 Q68.7467 1140.23 62.9365 1140.23 Q57.1264 1140.23 54.0477 1135.64 Q50.9921 1131.04 50.9921 1122.31 Q50.9921 1113.56 54.0477 1108.98 Q57.1264 1104.37 62.9365 1104.37 Z" fill="#000000" fill-rule="evenodd" fill-opacity="1" /><path clip-path="url(#clip600)" d="M83.0984 1133.68 L87.9827 1133.68 L87.9827 1139.55 L83.0984 1139.55 L83.0984 1133.68 Z" fill="#000000" fill-rule="evenodd" fill-opacity="1" /><path clip-path="url(#clip600)" d="M98.978 1135.62 L106.617 1135.62 L106.617 1109.25 L98.3067 1110.92 L98.3067 1106.66 L106.571 1104.99 L111.246 1104.99 L111.246 1135.62 L118.885 1135.62 L118.885 1139.55 L98.978 1139.55 L98.978 1135.62 Z" fill="#000000" fill-rule="evenodd" fill-opacity="1" /><path clip-path="url(#clip600)" d="M138.33 1108.07 Q134.719 1108.07 132.89 1111.64 Q131.084 1115.18 131.084 1122.31 Q131.084 1129.42 132.89 1132.98 Q134.719 1136.52 138.33 1136.52 Q141.964 1136.52 143.769 1132.98 Q145.598 1129.42 145.598 1122.31 Q145.598 1115.18 143.769 1111.64 Q141.964 1108.07 138.33 1108.07 M138.33 1104.37 Q144.14 1104.37 147.195 1108.98 Q150.274 1113.56 150.274 1122.31 Q150.274 1131.04 147.195 1135.64 Q144.14 1140.23 138.33 1140.23 Q132.519 1140.23 129.441 1135.64 Q126.385 1131.04 126.385 1122.31 Q126.385 1113.56 129.441 1108.98 Q132.519 1104.37 138.33 1104.37 Z" fill="#000000" fill-rule="evenodd" fill-opacity="1" /><path clip-path="url(#clip600)" d="M63.9319 818.389 Q60.3208 818.389 58.4921 821.954 Q56.6865 825.495 56.6865 832.625 Q56.6865 839.732 58.4921 843.296 Q60.3208 846.838 63.9319 846.838 Q67.5661 846.838 69.3717 843.296 Q71.2004 839.732 71.2004 832.625 Q71.2004 825.495 69.3717 821.954 Q67.5661 818.389 63.9319 818.389 M63.9319 814.685 Q69.742 814.685 72.7976 819.292 Q75.8763 823.875 75.8763 832.625 Q75.8763 841.352 72.7976 845.958 Q69.742 850.542 63.9319 850.542 Q58.1217 850.542 55.043 845.958 Q51.9875 841.352 51.9875 832.625 Q51.9875 823.875 55.043 819.292 Q58.1217 814.685 63.9319 814.685 Z" fill="#000000" fill-rule="evenodd" fill-opacity="1" /><path clip-path="url(#clip600)" d="M84.0938 843.991 L88.978 843.991 L88.978 849.87 L84.0938 849.87 L84.0938 843.991 Z" fill="#000000" fill-rule="evenodd" fill-opacity="1" /><path clip-path="url(#clip600)" d="M99.9733 845.935 L107.612 845.935 L107.612 819.57 L99.3021 821.236 L99.3021 816.977 L107.566 815.31 L112.242 815.31 L112.242 845.935 L119.881 845.935 L119.881 849.87 L99.9733 849.87 L99.9733 845.935 Z" fill="#000000" fill-rule="evenodd" fill-opacity="1" /><path clip-path="url(#clip600)" d="M129.371 815.31 L147.728 815.31 L147.728 819.245 L133.654 819.245 L133.654 827.718 Q134.672 827.37 135.691 827.208 Q136.709 827.023 137.728 827.023 Q143.515 827.023 146.894 830.195 Q150.274 833.366 150.274 838.782 Q150.274 844.361 146.802 847.463 Q143.33 850.542 137.01 850.542 Q134.834 850.542 132.566 850.171 Q130.32 849.801 127.913 849.06 L127.913 844.361 Q129.996 845.495 132.219 846.051 Q134.441 846.606 136.918 846.606 Q140.922 846.606 143.26 844.5 Q145.598 842.394 145.598 838.782 Q145.598 835.171 143.26 833.065 Q140.922 830.958 136.918 830.958 Q135.043 830.958 133.168 831.375 Q131.316 831.792 129.371 832.671 L129.371 815.31 Z" fill="#000000" fill-rule="evenodd" fill-opacity="1" /><path clip-path="url(#clip600)" d="M62.9365 528.705 Q59.3254 528.705 57.4967 532.27 Q55.6912 535.811 55.6912 542.941 Q55.6912 550.047 57.4967 553.612 Q59.3254 557.154 62.9365 557.154 Q66.5707 557.154 68.3763 553.612 Q70.205 550.047 70.205 542.941 Q70.205 535.811 68.3763 532.27 Q66.5707 528.705 62.9365 528.705 M62.9365 525.001 Q68.7467 525.001 71.8022 529.607 Q74.8809 534.191 74.8809 542.941 Q74.8809 551.668 71.8022 556.274 Q68.7467 560.857 62.9365 560.857 Q57.1264 560.857 54.0477 556.274 Q50.9921 551.668 50.9921 542.941 Q50.9921 534.191 54.0477 529.607 Q57.1264 525.001 62.9365 525.001 Z" fill="#000000" fill-rule="evenodd" fill-opacity="1" /><path clip-path="url(#clip600)" d="M83.0984 554.306 L87.9827 554.306 L87.9827 560.186 L83.0984 560.186 L83.0984 554.306 Z" fill="#000000" fill-rule="evenodd" fill-opacity="1" /><path clip-path="url(#clip600)" d="M102.196 556.251 L118.515 556.251 L118.515 560.186 L96.5706 560.186 L96.5706 556.251 Q99.2326 553.496 103.816 548.867 Q108.422 544.214 109.603 542.871 Q111.848 540.348 112.728 538.612 Q113.631 536.853 113.631 535.163 Q113.631 532.408 111.686 530.672 Q109.765 528.936 106.663 528.936 Q104.464 528.936 102.01 529.7 Q99.5798 530.464 96.8021 532.015 L96.8021 527.293 Q99.6261 526.158 102.08 525.58 Q104.534 525.001 106.571 525.001 Q111.941 525.001 115.135 527.686 Q118.33 530.371 118.33 534.862 Q118.33 536.992 117.52 538.913 Q116.733 540.811 114.626 543.404 Q114.047 544.075 110.946 547.293 Q107.844 550.487 102.196 556.251 Z" fill="#000000" fill-rule="evenodd" fill-opacity="1" /><path clip-path="url(#clip600)" d="M138.33 528.705 Q134.719 528.705 132.89 532.27 Q131.084 535.811 131.084 542.941 Q131.084 550.047 132.89 553.612 Q134.719 557.154 138.33 557.154 Q141.964 557.154 143.769 553.612 Q145.598 550.047 145.598 542.941 Q145.598 535.811 143.769 532.27 Q141.964 528.705 138.33 528.705 M138.33 525.001 Q144.14 525.001 147.195 529.607 Q150.274 534.191 150.274 542.941 Q150.274 551.668 147.195 556.274 Q144.14 560.857 138.33 560.857 Q132.519 560.857 129.441 556.274 Q126.385 551.668 126.385 542.941 Q126.385 534.191 129.441 529.607 Q132.519 525.001 138.33 525.001 Z" fill="#000000" fill-rule="evenodd" fill-opacity="1" /><path clip-path="url(#clip600)" d="M63.9319 239.02 Q60.3208 239.02 58.4921 242.585 Q56.6865 246.127 56.6865 253.256 Q56.6865 260.363 58.4921 263.928 Q60.3208 267.469 63.9319 267.469 Q67.5661 267.469 69.3717 263.928 Q71.2004 260.363 71.2004 253.256 Q71.2004 246.127 69.3717 242.585 Q67.5661 239.02 63.9319 239.02 M63.9319 235.317 Q69.742 235.317 72.7976 239.923 Q75.8763 244.507 75.8763 253.256 Q75.8763 261.983 72.7976 266.59 Q69.742 271.173 63.9319 271.173 Q58.1217 271.173 55.043 266.59 Q51.9875 261.983 51.9875 253.256 Q51.9875 244.507 55.043 239.923 Q58.1217 235.317 63.9319 235.317 Z" fill="#000000" fill-rule="evenodd" fill-opacity="1" /><path clip-path="url(#clip600)" d="M84.0938 264.622 L88.978 264.622 L88.978 270.502 L84.0938 270.502 L84.0938 264.622 Z" fill="#000000" fill-rule="evenodd" fill-opacity="1" /><path clip-path="url(#clip600)" d="M103.191 266.567 L119.51 266.567 L119.51 270.502 L97.566 270.502 L97.566 266.567 Q100.228 263.812 104.811 259.182 Q109.418 254.53 110.598 253.187 Q112.844 250.664 113.723 248.928 Q114.626 247.169 114.626 245.479 Q114.626 242.724 112.682 240.988 Q110.76 239.252 107.658 239.252 Q105.459 239.252 103.006 240.016 Q100.575 240.78 97.7974 242.331 L97.7974 237.608 Q100.621 236.474 103.075 235.895 Q105.529 235.317 107.566 235.317 Q112.936 235.317 116.131 238.002 Q119.325 240.687 119.325 245.178 Q119.325 247.307 118.515 249.229 Q117.728 251.127 115.621 253.719 Q115.043 254.391 111.941 257.608 Q108.839 260.803 103.191 266.567 Z" fill="#000000" fill-rule="evenodd" fill-opacity="1" /><path clip-path="url(#clip600)" d="M129.371 235.942 L147.728 235.942 L147.728 239.877 L133.654 239.877 L133.654 248.349 Q134.672 248.002 135.691 247.84 Q136.709 247.655 137.728 247.655 Q143.515 247.655 146.894 250.826 Q150.274 253.997 150.274 259.414 Q150.274 264.993 146.802 268.094 Q143.33 271.173 137.01 271.173 Q134.834 271.173 132.566 270.803 Q130.32 270.432 127.913 269.692 L127.913 264.993 Q129.996 266.127 132.219 266.682 Q134.441 267.238 136.918 267.238 Q140.922 267.238 143.26 265.131 Q145.598 263.025 145.598 259.414 Q145.598 255.803 143.26 253.696 Q140.922 251.59 136.918 251.59 Q135.043 251.59 133.168 252.006 Q131.316 252.423 129.371 253.303 L129.371 235.942 Z" fill="#000000" fill-rule="evenodd" fill-opacity="1" /><polyline clip-path="url(#clip602)" style="stroke:#009af9; stroke-linecap:butt; stroke-linejoin:round; stroke-width:4; stroke-opacity:1; fill:none" points="
  247.59,1058.92 254.425,985.036 261.261,930.197 268.096,1053.75 274.932,1209.82 281.768,860.705 288.603,1083.62 295.439,1028.54 302.274,980.748 309.11,640.651 
  315.946,1091.87 322.781,760.712 329.617,1180.78 336.453,1148.53 343.288,1048.66 350.124,1113.05 356.959,1072.58 363.795,932.01 370.631,793.498 377.466,1162.95 
  384.302,1132.01 391.138,1002.83 397.973,1265.74 404.809,1059.23 411.644,1148.43 418.48,1233.26 425.316,823.752 432.151,1062.63 438.987,1037.67 445.823,1068.78 
  452.658,687.82 459.494,453.579 466.329,1107.73 473.165,1272.42 480.001,592.092 486.836,1268.85 493.672,1196.83 500.508,1180.18 507.343,990.48 514.179,1088.69 
  521.014,1172.46 527.85,910.131 534.686,815.726 541.521,1062.12 548.357,1152.41 555.192,1075.85 562.028,1054.3 568.864,1257.09 575.699,1255.3 582.535,1074.66 
  589.371,1024.65 596.206,847.629 603.042,1326.06 609.877,897.036 616.713,1066.79 623.549,891.269 630.384,1016.4 637.22,1046.54 644.056,1031.97 650.891,1194.79 
  657.727,1176.79 664.562,1016.97 671.398,1063.71 678.234,1334.73 685.069,1190.67 691.905,1081.13 698.741,1191.13 705.576,1178.61 712.412,758.788 719.247,1310.86 
  726.083,1227.59 732.919,1133.15 739.754,1127 746.59,1372.95 753.426,1331.58 760.261,1118.07 767.097,1365.46 773.932,1157.93 780.768,1260.81 787.604,1095.8 
  794.439,684.898 801.275,569.406 808.11,1064.49 814.946,1146.48 821.782,1117.22 828.617,1132.24 835.453,1162.48 842.289,1125.29 849.124,979.331 855.96,1294.11 
  862.795,1318.05 869.631,1295.95 876.467,1299.64 883.302,910.663 890.138,1114.88 896.974,1148.18 903.809,1131.23 910.645,751.306 917.48,1111.81 924.316,1105.25 
  931.152,1002.25 937.987,1191.25 944.823,1066.27 951.659,587.321 958.494,1387.34 965.33,1137.02 972.165,1364.81 979.001,1054.65 985.837,1073.91 992.672,1081.26 
  999.508,1004.99 1006.34,1272.37 1013.18,939.855 1020.01,1299.01 1026.85,973.448 1033.69,1076.03 1040.52,878.467 1047.36,929.896 1054.19,1213.94 1061.03,1007.1 
  1067.86,1263.52 1074.7,932.63 1081.54,1089.53 1088.37,1188.52 1095.21,1302.56 1102.04,1034.35 1108.88,1264.43 1115.71,1181.33 1122.55,1304.13 1129.38,917.545 
  1136.22,689.867 1143.06,584.974 1149.89,1275.64 1156.73,900.624 1163.56,862.02 1170.4,1314.73 1177.23,1009.93 1184.07,1094.82 1190.91,829.765 1197.74,1074.78 
  1204.58,1276.66 1211.41,1295.37 1218.25,492.956 1225.08,1192.85 1231.92,964.906 1238.75,1123.62 1245.59,1023.16 1252.43,1245.21 1259.26,1175.74 1266.1,1247.87 
  1272.93,1227.92 1279.77,932.452 1286.6,1366.45 1293.44,913.183 1300.28,576.6 1307.11,87.9763 1313.95,1213.71 1320.78,1244.47 1327.62,1174.48 1334.45,1044.64 
  1341.29,1072.88 1348.12,1214.56 1354.96,879.716 1361.8,1141.71 1368.63,816.925 1375.47,1075.62 1382.3,986.85 1389.14,869.236 1395.97,942.967 1402.81,528.87 
  1409.65,1040.65 1416.48,1014.6 1423.32,1212.31 1430.15,388.151 1436.99,1145.17 1443.82,1148.09 1450.66,994.927 1457.49,885.358 1464.33,1366.08 1471.17,1128.21 
  1478,864.852 1484.84,729.617 1491.67,1263.02 1498.51,552.518 1505.34,970.516 1512.18,1026.97 1519.02,1251.84 1525.85,1185.3 1532.69,1069.58 1539.52,1108.24 
  1546.36,1146.75 1553.19,806.008 1560.03,993.582 1566.86,700.655 1573.7,790.343 1580.54,1177.29 1587.37,1128.55 1594.21,848.352 1601.04,1071.03 1607.88,975.661 
  1614.71,949.118 1621.55,1041.4 1628.39,1038.81 1635.22,1088.21 1642.06,1091.65 1648.89,1134.38 1655.73,1148.83 1662.56,1103.07 1669.4,1175.85 1676.23,108.927 
  1683.07,803.728 1689.91,991.295 1696.74,1081.63 1703.58,1341.29 1710.41,547.593 1717.25,888.705 1724.08,990.141 1730.92,1334.69 1737.76,926.209 1744.59,1416.15 
  1751.43,1249.88 1758.26,758.406 1765.1,1128.53 1771.93,1040.47 1778.77,963.654 1785.6,1216.84 1792.44,746.67 1799.28,1445.72 1806.11,974.777 1812.95,956.285 
  1819.78,1080.46 1826.62,1236.45 1833.45,1080.22 1840.29,1141.92 1847.12,1373.83 1853.96,1269.23 1860.8,1244.21 1867.63,1342.75 1874.47,1075.75 1881.3,965.532 
  1888.14,1159.8 1894.97,896.653 1901.81,1187.4 1908.65,870.846 1915.48,1149.78 1922.32,1115.75 1929.15,997.527 1935.99,1177.17 1942.82,1012.65 1949.66,1130.52 
  1956.49,1114.66 1963.33,931.47 1970.17,1269.87 1977,1165.81 1983.84,1263.43 1990.67,1060.79 1997.51,1130.08 2004.34,510.2 2011.18,990.593 2018.02,911.061 
  2024.85,1162.47 2031.69,1030.2 2038.52,1150.95 2045.36,1191.58 2052.19,1130.87 2059.03,738.45 2065.86,1063.55 2072.7,1118.57 2079.54,1270.36 2086.37,1205.36 
  2093.21,1351.41 2100.04,1031.87 2106.88,1201.73 2113.71,1265.77 2120.55,869.673 2127.39,1165.08 2134.22,810.781 2141.06,947.352 2147.89,1137.03 2154.73,1090.99 
  2161.56,1180.97 2168.4,720.958 2175.23,1189.66 2182.07,1019.51 2188.91,1156.18 2195.74,988.41 2202.58,1229.94 2209.41,1172.52 2216.25,873.739 2223.08,1089.2 
  2229.92,1262.13 2236.76,578.009 2243.59,1190.71 2250.43,1179.9 2257.26,1086.02 2264.1,1040.44 2270.93,631.809 2277.77,1131.26 2284.6,1179.46 2291.44,1181.41 
  
  "/>
<path clip-path="url(#clip600)" d="
M1987.39 198.898 L2280.54 198.898 L2280.54 95.2176 L1987.39 95.2176  Z
  " fill="#ffffff" fill-rule="evenodd" fill-opacity="1"/>
<polyline clip-path="url(#clip600)" style="stroke:#000000; stroke-linecap:butt; stroke-linejoin:round; stroke-width:4; stroke-opacity:1; fill:none" points="
  1987.39,198.898 2280.54,198.898 2280.54,95.2176 1987.39,95.2176 1987.39,198.898 
  "/>
<polyline clip-path="url(#clip600)" style="stroke:#009af9; stroke-linecap:butt; stroke-linejoin:round; stroke-width:4; stroke-opacity:1; fill:none" points="
  2011.46,147.058 2155.89,147.058 
  "/>
<path clip-path="url(#clip600)" d="M2193.81 166.745 Q2192 171.375 2190.29 172.787 Q2188.58 174.199 2185.71 174.199 L2182.3 174.199 L2182.3 170.634 L2184.8 170.634 Q2186.56 170.634 2187.53 169.8 Q2188.51 168.967 2189.69 165.865 L2190.45 163.921 L2179.97 138.412 L2184.48 138.412 L2192.58 158.689 L2200.68 138.412 L2205.2 138.412 L2193.81 166.745 Z" fill="#000000" fill-rule="evenodd" fill-opacity="1" /><path clip-path="url(#clip600)" d="M2212.49 160.402 L2220.13 160.402 L2220.13 134.037 L2211.82 135.703 L2211.82 131.444 L2220.08 129.778 L2224.76 129.778 L2224.76 160.402 L2232.4 160.402 L2232.4 164.338 L2212.49 164.338 L2212.49 160.402 Z" fill="#000000" fill-rule="evenodd" fill-opacity="1" /></svg>
