<?xml version="1.0" encoding="utf-8"?>
<svg xmlns="http://www.w3.org/2000/svg" xmlns:xlink="http://www.w3.org/1999/xlink" width="300" height="330" viewBox="0 0 1200 1320">
<defs>
  <clipPath id="clip340">
    <rect x="0" y="0" width="1200" height="1320"/>
  </clipPath>
</defs>
<path clip-path="url(#clip340)" d="
M0 1320 L1200 1320 L1200 0 L0 0  Z
  " fill="#ffffff" fill-rule="evenodd" fill-opacity="1"/>
<defs>
  <clipPath id="clip341">
    <rect x="264" y="132" width="925" height="925"/>
  </clipPath>
</defs>
<path clip-path="url(#clip340)" d="
M252.276 1079.57 L1152.76 1079.57 L1152.76 179.086 L252.276 179.086  Z
  " fill="#ffffff" fill-rule="evenodd" fill-opacity="1"/>
<defs>
  <clipPath id="clip342">
    <rect x="252" y="179" width="901" height="901"/>
  </clipPath>
</defs>
<polyline clip-path="url(#clip342)" style="stroke:#000000; stroke-linecap:butt; stroke-linejoin:round; stroke-width:2; stroke-opacity:0.1; fill:none" points="
  293.207,1079.57 293.207,179.086 
  "/>
<polyline clip-path="url(#clip342)" style="stroke:#000000; stroke-linecap:butt; stroke-linejoin:round; stroke-width:2; stroke-opacity:0.1; fill:none" points="
  475.308,1079.57 475.308,179.086 
  "/>
<polyline clip-path="url(#clip342)" style="stroke:#000000; stroke-linecap:butt; stroke-linejoin:round; stroke-width:2; stroke-opacity:0.1; fill:none" points="
  657.408,1079.57 657.408,179.086 
  "/>
<polyline clip-path="url(#clip342)" style="stroke:#000000; stroke-linecap:butt; stroke-linejoin:round; stroke-width:2; stroke-opacity:0.1; fill:none" points="
  839.508,1079.57 839.508,179.086 
  "/>
<polyline clip-path="url(#clip342)" style="stroke:#000000; stroke-linecap:butt; stroke-linejoin:round; stroke-width:2; stroke-opacity:0.1; fill:none" points="
  1021.61,1079.57 1021.61,179.086 
  "/>
<polyline clip-path="url(#clip340)" style="stroke:#000000; stroke-linecap:butt; stroke-linejoin:round; stroke-width:4; stroke-opacity:1; fill:none" points="
  252.276,1079.57 1152.76,1079.57 
  "/>
<polyline clip-path="url(#clip340)" style="stroke:#000000; stroke-linecap:butt; stroke-linejoin:round; stroke-width:4; stroke-opacity:1; fill:none" points="
  293.207,1079.57 293.207,1061.68 
  "/>
<polyline clip-path="url(#clip340)" style="stroke:#000000; stroke-linecap:butt; stroke-linejoin:round; stroke-width:4; stroke-opacity:1; fill:none" points="
  475.308,1079.57 475.308,1061.68 
  "/>
<polyline clip-path="url(#clip340)" style="stroke:#000000; stroke-linecap:butt; stroke-linejoin:round; stroke-width:4; stroke-opacity:1; fill:none" points="
  657.408,1079.57 657.408,1061.68 
  "/>
<polyline clip-path="url(#clip340)" style="stroke:#000000; stroke-linecap:butt; stroke-linejoin:round; stroke-width:4; stroke-opacity:1; fill:none" points="
  839.508,1079.57 839.508,1061.68 
  "/>
<polyline clip-path="url(#clip340)" style="stroke:#000000; stroke-linecap:butt; stroke-linejoin:round; stroke-width:4; stroke-opacity:1; fill:none" points="
  1021.61,1079.57 1021.61,1061.68 
  "/>
<path clip-path="url(#clip340)" d="M255.511 1101.84 Q251.9 1101.84 250.071 1105.41 Q248.265 1108.95 248.265 1116.08 Q248.265 1123.19 250.071 1126.75 Q251.9 1130.29 255.511 1130.29 Q259.145 1130.29 260.951 1126.75 Q262.779 1123.19 262.779 1116.08 Q262.779 1108.95 260.951 1105.41 Q259.145 1101.84 255.511 1101.84 M255.511 1098.14 Q261.321 1098.14 264.376 1102.75 Q267.455 1107.33 267.455 1116.08 Q267.455 1124.81 264.376 1129.41 Q261.321 1134 255.511 1134 Q249.701 1134 246.622 1129.41 Q243.566 1124.81 243.566 1116.08 Q243.566 1107.33 246.622 1102.75 Q249.701 1098.14 255.511 1098.14 Z" fill="#000000" fill-rule="evenodd" fill-opacity="1" /><path clip-path="url(#clip340)" d="M275.673 1127.45 L280.557 1127.45 L280.557 1133.33 L275.673 1133.33 L275.673 1127.45 Z" fill="#000000" fill-rule="evenodd" fill-opacity="1" /><path clip-path="url(#clip340)" d="M300.742 1101.84 Q297.131 1101.84 295.302 1105.41 Q293.497 1108.95 293.497 1116.08 Q293.497 1123.19 295.302 1126.75 Q297.131 1130.29 300.742 1130.29 Q304.376 1130.29 306.182 1126.75 Q308.01 1123.19 308.01 1116.08 Q308.01 1108.95 306.182 1105.41 Q304.376 1101.84 300.742 1101.84 M300.742 1098.14 Q306.552 1098.14 309.608 1102.75 Q312.686 1107.33 312.686 1116.08 Q312.686 1124.81 309.608 1129.41 Q306.552 1134 300.742 1134 Q294.932 1134 291.853 1129.41 Q288.798 1124.81 288.798 1116.08 Q288.798 1107.33 291.853 1102.75 Q294.932 1098.14 300.742 1098.14 Z" fill="#000000" fill-rule="evenodd" fill-opacity="1" /><path clip-path="url(#clip340)" d="M330.904 1101.84 Q327.293 1101.84 325.464 1105.41 Q323.659 1108.95 323.659 1116.08 Q323.659 1123.19 325.464 1126.75 Q327.293 1130.29 330.904 1130.29 Q334.538 1130.29 336.344 1126.75 Q338.172 1123.19 338.172 1116.08 Q338.172 1108.95 336.344 1105.41 Q334.538 1101.84 330.904 1101.84 M330.904 1098.14 Q336.714 1098.14 339.77 1102.75 Q342.848 1107.33 342.848 1116.08 Q342.848 1124.81 339.77 1129.41 Q336.714 1134 330.904 1134 Q325.094 1134 322.015 1129.41 Q318.959 1124.81 318.959 1116.08 Q318.959 1107.33 322.015 1102.75 Q325.094 1098.14 330.904 1098.14 Z" fill="#000000" fill-rule="evenodd" fill-opacity="1" /><path clip-path="url(#clip340)" d="M438.109 1101.84 Q434.498 1101.84 432.669 1105.41 Q430.863 1108.95 430.863 1116.08 Q430.863 1123.19 432.669 1126.75 Q434.498 1130.29 438.109 1130.29 Q441.743 1130.29 443.549 1126.75 Q445.377 1123.19 445.377 1116.08 Q445.377 1108.95 443.549 1105.41 Q441.743 1101.84 438.109 1101.84 M438.109 1098.14 Q443.919 1098.14 446.974 1102.75 Q450.053 1107.33 450.053 1116.08 Q450.053 1124.81 446.974 1129.41 Q443.919 1134 438.109 1134 Q432.299 1134 429.22 1129.41 Q426.164 1124.81 426.164 1116.08 Q426.164 1107.33 429.22 1102.75 Q432.299 1098.14 438.109 1098.14 Z" fill="#000000" fill-rule="evenodd" fill-opacity="1" /><path clip-path="url(#clip340)" d="M458.271 1127.45 L463.155 1127.45 L463.155 1133.33 L458.271 1133.33 L458.271 1127.45 Z" fill="#000000" fill-rule="evenodd" fill-opacity="1" /><path clip-path="url(#clip340)" d="M477.368 1129.39 L493.687 1129.39 L493.687 1133.33 L471.743 1133.33 L471.743 1129.39 Q474.405 1126.64 478.988 1122.01 Q483.595 1117.35 484.775 1116.01 Q487.021 1113.49 487.9 1111.75 Q488.803 1109.99 488.803 1108.3 Q488.803 1105.55 486.858 1103.81 Q484.937 1102.08 481.835 1102.08 Q479.636 1102.08 477.183 1102.84 Q474.752 1103.6 471.974 1105.15 L471.974 1100.43 Q474.798 1099.3 477.252 1098.72 Q479.706 1098.14 481.743 1098.14 Q487.113 1098.14 490.308 1100.83 Q493.502 1103.51 493.502 1108 Q493.502 1110.13 492.692 1112.05 Q491.905 1113.95 489.798 1116.54 Q489.22 1117.21 486.118 1120.43 Q483.016 1123.63 477.368 1129.39 Z" fill="#000000" fill-rule="evenodd" fill-opacity="1" /><path clip-path="url(#clip340)" d="M503.548 1098.77 L521.905 1098.77 L521.905 1102.7 L507.831 1102.7 L507.831 1111.17 Q508.849 1110.83 509.868 1110.66 Q510.886 1110.48 511.905 1110.48 Q517.692 1110.48 521.071 1113.65 Q524.451 1116.82 524.451 1122.24 Q524.451 1127.82 520.979 1130.92 Q517.506 1134 511.187 1134 Q509.011 1134 506.743 1133.63 Q504.497 1133.26 502.09 1132.52 L502.09 1127.82 Q504.173 1128.95 506.395 1129.51 Q508.618 1130.06 511.094 1130.06 Q515.099 1130.06 517.437 1127.96 Q519.775 1125.85 519.775 1122.24 Q519.775 1118.63 517.437 1116.52 Q515.099 1114.41 511.094 1114.41 Q509.219 1114.41 507.344 1114.83 Q505.493 1115.25 503.548 1116.13 L503.548 1098.77 Z" fill="#000000" fill-rule="evenodd" fill-opacity="1" /><path clip-path="url(#clip340)" d="M619.711 1101.84 Q616.1 1101.84 614.272 1105.41 Q612.466 1108.95 612.466 1116.08 Q612.466 1123.19 614.272 1126.75 Q616.1 1130.29 619.711 1130.29 Q623.346 1130.29 625.151 1126.75 Q626.98 1123.19 626.98 1116.08 Q626.98 1108.95 625.151 1105.41 Q623.346 1101.84 619.711 1101.84 M619.711 1098.14 Q625.522 1098.14 628.577 1102.75 Q631.656 1107.33 631.656 1116.08 Q631.656 1124.81 628.577 1129.41 Q625.522 1134 619.711 1134 Q613.901 1134 610.823 1129.41 Q607.767 1124.81 607.767 1116.08 Q607.767 1107.33 610.823 1102.75 Q613.901 1098.14 619.711 1098.14 Z" fill="#000000" fill-rule="evenodd" fill-opacity="1" /><path clip-path="url(#clip340)" d="M639.873 1127.45 L644.758 1127.45 L644.758 1133.33 L639.873 1133.33 L639.873 1127.45 Z" fill="#000000" fill-rule="evenodd" fill-opacity="1" /><path clip-path="url(#clip340)" d="M654.989 1098.77 L673.345 1098.77 L673.345 1102.7 L659.271 1102.7 L659.271 1111.17 Q660.29 1110.83 661.308 1110.66 Q662.327 1110.48 663.345 1110.48 Q669.132 1110.48 672.512 1113.65 Q675.892 1116.82 675.892 1122.24 Q675.892 1127.82 672.419 1130.92 Q668.947 1134 662.628 1134 Q660.452 1134 658.183 1133.63 Q655.938 1133.26 653.531 1132.52 L653.531 1127.82 Q655.614 1128.95 657.836 1129.51 Q660.058 1130.06 662.535 1130.06 Q666.54 1130.06 668.878 1127.96 Q671.216 1125.85 671.216 1122.24 Q671.216 1118.63 668.878 1116.52 Q666.54 1114.41 662.535 1114.41 Q660.66 1114.41 658.785 1114.83 Q656.933 1115.25 654.989 1116.13 L654.989 1098.77 Z" fill="#000000" fill-rule="evenodd" fill-opacity="1" /><path clip-path="url(#clip340)" d="M695.104 1101.84 Q691.493 1101.84 689.665 1105.41 Q687.859 1108.95 687.859 1116.08 Q687.859 1123.19 689.665 1126.75 Q691.493 1130.29 695.104 1130.29 Q698.739 1130.29 700.544 1126.75 Q702.373 1123.19 702.373 1116.08 Q702.373 1108.95 700.544 1105.41 Q698.739 1101.84 695.104 1101.84 M695.104 1098.14 Q700.915 1098.14 703.97 1102.75 Q707.049 1107.33 707.049 1116.08 Q707.049 1124.81 703.97 1129.41 Q700.915 1134 695.104 1134 Q689.294 1134 686.216 1129.41 Q683.16 1124.81 683.16 1116.08 Q683.16 1107.33 686.216 1102.75 Q689.294 1098.14 695.104 1098.14 Z" fill="#000000" fill-rule="evenodd" fill-opacity="1" /><path clip-path="url(#clip340)" d="M802.309 1101.84 Q798.698 1101.84 796.87 1105.41 Q795.064 1108.95 795.064 1116.08 Q795.064 1123.19 796.87 1126.75 Q798.698 1130.29 802.309 1130.29 Q805.944 1130.29 807.749 1126.75 Q809.578 1123.19 809.578 1116.08 Q809.578 1108.95 807.749 1105.41 Q805.944 1101.84 802.309 1101.84 M802.309 1098.14 Q808.12 1098.14 811.175 1102.75 Q814.254 1107.33 814.254 1116.08 Q814.254 1124.81 811.175 1129.41 Q808.12 1134 802.309 1134 Q796.499 1134 793.421 1129.41 Q790.365 1124.81 790.365 1116.08 Q790.365 1107.33 793.421 1102.75 Q796.499 1098.14 802.309 1098.14 Z" fill="#000000" fill-rule="evenodd" fill-opacity="1" /><path clip-path="url(#clip340)" d="M822.471 1127.45 L827.356 1127.45 L827.356 1133.33 L822.471 1133.33 L822.471 1127.45 Z" fill="#000000" fill-rule="evenodd" fill-opacity="1" /><path clip-path="url(#clip340)" d="M836.36 1098.77 L858.582 1098.77 L858.582 1100.76 L846.036 1133.33 L841.152 1133.33 L852.957 1102.7 L836.36 1102.7 L836.36 1098.77 Z" fill="#000000" fill-rule="evenodd" fill-opacity="1" /><path clip-path="url(#clip340)" d="M867.749 1098.77 L886.105 1098.77 L886.105 1102.7 L872.031 1102.7 L872.031 1111.17 Q873.05 1110.83 874.068 1110.66 Q875.087 1110.48 876.105 1110.48 Q881.892 1110.48 885.272 1113.65 Q888.652 1116.82 888.652 1122.24 Q888.652 1127.82 885.179 1130.92 Q881.707 1134 875.388 1134 Q873.212 1134 870.943 1133.63 Q868.698 1133.26 866.291 1132.52 L866.291 1127.82 Q868.374 1128.95 870.596 1129.51 Q872.818 1130.06 875.295 1130.06 Q879.3 1130.06 881.638 1127.96 Q883.976 1125.85 883.976 1122.24 Q883.976 1118.63 881.638 1116.52 Q879.3 1114.41 875.295 1114.41 Q873.42 1114.41 871.545 1114.83 Q869.693 1115.25 867.749 1116.13 L867.749 1098.77 Z" fill="#000000" fill-rule="evenodd" fill-opacity="1" /><path clip-path="url(#clip340)" d="M973.681 1129.39 L981.319 1129.39 L981.319 1103.02 L973.009 1104.69 L973.009 1100.43 L981.273 1098.77 L985.949 1098.77 L985.949 1129.39 L993.588 1129.39 L993.588 1133.33 L973.681 1133.33 L973.681 1129.39 Z" fill="#000000" fill-rule="evenodd" fill-opacity="1" /><path clip-path="url(#clip340)" d="M1003.03 1127.45 L1007.92 1127.45 L1007.92 1133.33 L1003.03 1133.33 L1003.03 1127.45 Z" fill="#000000" fill-rule="evenodd" fill-opacity="1" /><path clip-path="url(#clip340)" d="M1028.1 1101.84 Q1024.49 1101.84 1022.66 1105.41 Q1020.86 1108.95 1020.86 1116.08 Q1020.86 1123.19 1022.66 1126.75 Q1024.49 1130.29 1028.1 1130.29 Q1031.74 1130.29 1033.54 1126.75 Q1035.37 1123.19 1035.37 1116.08 Q1035.37 1108.95 1033.54 1105.41 Q1031.74 1101.84 1028.1 1101.84 M1028.1 1098.14 Q1033.91 1098.14 1036.97 1102.75 Q1040.05 1107.33 1040.05 1116.08 Q1040.05 1124.81 1036.97 1129.41 Q1033.91 1134 1028.1 1134 Q1022.29 1134 1019.21 1129.41 Q1016.16 1124.81 1016.16 1116.08 Q1016.16 1107.33 1019.21 1102.75 Q1022.29 1098.14 1028.1 1098.14 Z" fill="#000000" fill-rule="evenodd" fill-opacity="1" /><path clip-path="url(#clip340)" d="M1058.26 1101.84 Q1054.65 1101.84 1052.82 1105.41 Q1051.02 1108.95 1051.02 1116.08 Q1051.02 1123.19 1052.82 1126.75 Q1054.65 1130.29 1058.26 1130.29 Q1061.9 1130.29 1063.7 1126.75 Q1065.53 1123.19 1065.53 1116.08 Q1065.53 1108.95 1063.7 1105.41 Q1061.9 1101.84 1058.26 1101.84 M1058.26 1098.14 Q1064.07 1098.14 1067.13 1102.75 Q1070.21 1107.33 1070.21 1116.08 Q1070.21 1124.81 1067.13 1129.41 Q1064.07 1134 1058.26 1134 Q1052.45 1134 1049.37 1129.41 Q1046.32 1124.81 1046.32 1116.08 Q1046.32 1107.33 1049.37 1102.75 Q1052.45 1098.14 1058.26 1098.14 Z" fill="#000000" fill-rule="evenodd" fill-opacity="1" /><path clip-path="url(#clip340)" d="M657.479 1190.44 Q657.479 1183.98 654.805 1180.32 Q652.163 1176.62 647.516 1176.62 Q642.869 1176.62 640.196 1180.32 Q637.554 1183.98 637.554 1190.44 Q637.554 1196.9 640.196 1200.59 Q642.869 1204.25 647.516 1204.25 Q652.163 1204.25 654.805 1200.59 Q657.479 1196.9 657.479 1190.44 M637.554 1177.99 Q639.4 1174.81 642.201 1173.28 Q645.034 1171.72 648.949 1171.72 Q655.442 1171.72 659.484 1176.88 Q663.558 1182.03 663.558 1190.44 Q663.558 1198.84 659.484 1204 Q655.442 1209.15 648.949 1209.15 Q645.034 1209.15 642.201 1207.62 Q639.4 1206.07 637.554 1202.88 L637.554 1208.23 L631.666 1208.23 L631.666 1158.7 L637.554 1158.7 L637.554 1177.99 Z" fill="#000000" fill-rule="evenodd" fill-opacity="1" /><path clip-path="url(#clip340)" d="M673.266 1172.58 L679.122 1172.58 L679.122 1208.23 L673.266 1208.23 L673.266 1172.58 M673.266 1158.7 L679.122 1158.7 L679.122 1166.12 L673.266 1166.12 L673.266 1158.7 Z" fill="#000000" fill-rule="evenodd" fill-opacity="1" /><path clip-path="url(#clip340)" d="M712.033 1178.06 Q711.046 1177.48 709.869 1177.23 Q708.723 1176.94 707.322 1176.94 Q702.357 1176.94 699.683 1180.19 Q697.042 1183.4 697.042 1189.45 L697.042 1208.23 L691.153 1208.23 L691.153 1172.58 L697.042 1172.58 L697.042 1178.12 Q698.888 1174.87 701.848 1173.31 Q704.808 1171.72 709.041 1171.72 Q709.646 1171.72 710.378 1171.82 Q711.11 1171.88 712.001 1172.04 L712.033 1178.06 Z" fill="#000000" fill-rule="evenodd" fill-opacity="1" /><path clip-path="url(#clip340)" d="M723.969 1162.46 L723.969 1172.58 L736.032 1172.58 L736.032 1177.13 L723.969 1177.13 L723.969 1196.49 Q723.969 1200.85 725.146 1202.09 Q726.356 1203.33 730.016 1203.33 L736.032 1203.33 L736.032 1208.23 L730.016 1208.23 Q723.237 1208.23 720.658 1205.72 Q718.08 1203.17 718.08 1196.49 L718.08 1177.13 L713.783 1177.13 L713.783 1172.58 L718.08 1172.58 L718.08 1162.46 L723.969 1162.46 Z" fill="#000000" fill-rule="evenodd" fill-opacity="1" /><path clip-path="url(#clip340)" d="M773.366 1186.71 L773.366 1208.23 L767.51 1208.23 L767.51 1186.9 Q767.51 1181.84 765.537 1179.33 Q763.563 1176.81 759.617 1176.81 Q754.874 1176.81 752.137 1179.84 Q749.4 1182.86 749.4 1188.08 L749.4 1208.23 L743.511 1208.23 L743.511 1158.7 L749.4 1158.7 L749.4 1178.12 Q751.5 1174.91 754.333 1173.31 Q757.198 1171.72 760.922 1171.72 Q767.064 1171.72 770.215 1175.54 Q773.366 1179.33 773.366 1186.71 Z" fill="#000000" fill-rule="evenodd" fill-opacity="1" /><polyline clip-path="url(#clip342)" style="stroke:#000000; stroke-linecap:butt; stroke-linejoin:round; stroke-width:2; stroke-opacity:0.1; fill:none" points="
  252.276,1038.63 1152.76,1038.63 
  "/>
<polyline clip-path="url(#clip342)" style="stroke:#000000; stroke-linecap:butt; stroke-linejoin:round; stroke-width:2; stroke-opacity:0.1; fill:none" points="
  252.276,856.535 1152.76,856.535 
  "/>
<polyline clip-path="url(#clip342)" style="stroke:#000000; stroke-linecap:butt; stroke-linejoin:round; stroke-width:2; stroke-opacity:0.1; fill:none" points="
  252.276,674.434 1152.76,674.434 
  "/>
<polyline clip-path="url(#clip342)" style="stroke:#000000; stroke-linecap:butt; stroke-linejoin:round; stroke-width:2; stroke-opacity:0.1; fill:none" points="
  252.276,492.334 1152.76,492.334 
  "/>
<polyline clip-path="url(#clip342)" style="stroke:#000000; stroke-linecap:butt; stroke-linejoin:round; stroke-width:2; stroke-opacity:0.1; fill:none" points="
  252.276,310.234 1152.76,310.234 
  "/>
<polyline clip-path="url(#clip340)" style="stroke:#000000; stroke-linecap:butt; stroke-linejoin:round; stroke-width:4; stroke-opacity:1; fill:none" points="
  252.276,1079.57 252.276,179.086 
  "/>
<polyline clip-path="url(#clip340)" style="stroke:#000000; stroke-linecap:butt; stroke-linejoin:round; stroke-width:4; stroke-opacity:1; fill:none" points="
  252.276,1038.63 271.174,1038.63 
  "/>
<polyline clip-path="url(#clip340)" style="stroke:#000000; stroke-linecap:butt; stroke-linejoin:round; stroke-width:4; stroke-opacity:1; fill:none" points="
  252.276,856.535 271.174,856.535 
  "/>
<polyline clip-path="url(#clip340)" style="stroke:#000000; stroke-linecap:butt; stroke-linejoin:round; stroke-width:4; stroke-opacity:1; fill:none" points="
  252.276,674.434 271.174,674.434 
  "/>
<polyline clip-path="url(#clip340)" style="stroke:#000000; stroke-linecap:butt; stroke-linejoin:round; stroke-width:4; stroke-opacity:1; fill:none" points="
  252.276,492.334 271.174,492.334 
  "/>
<polyline clip-path="url(#clip340)" style="stroke:#000000; stroke-linecap:butt; stroke-linejoin:round; stroke-width:4; stroke-opacity:1; fill:none" points="
  252.276,310.234 271.174,310.234 
  "/>
<path clip-path="url(#clip340)" d="M145.139 1024.43 Q141.528 1024.43 139.699 1028 Q137.894 1031.54 137.894 1038.67 Q137.894 1045.78 139.699 1049.34 Q141.528 1052.88 145.139 1052.88 Q148.773 1052.88 150.579 1049.34 Q152.407 1045.78 152.407 1038.67 Q152.407 1031.54 150.579 1028 Q148.773 1024.43 145.139 1024.43 M145.139 1020.73 Q150.949 1020.73 154.005 1025.34 Q157.083 1029.92 157.083 1038.67 Q157.083 1047.4 154.005 1052 Q150.949 1056.59 145.139 1056.59 Q139.329 1056.59 136.25 1052 Q133.195 1047.4 133.195 1038.67 Q133.195 1029.92 136.25 1025.34 Q139.329 1020.73 145.139 1020.73 Z" fill="#000000" fill-rule="evenodd" fill-opacity="1" /><path clip-path="url(#clip340)" d="M165.301 1050.04 L170.185 1050.04 L170.185 1055.91 L165.301 1055.91 L165.301 1050.04 Z" fill="#000000" fill-rule="evenodd" fill-opacity="1" /><path clip-path="url(#clip340)" d="M190.37 1024.43 Q186.759 1024.43 184.93 1028 Q183.125 1031.54 183.125 1038.67 Q183.125 1045.78 184.93 1049.34 Q186.759 1052.88 190.37 1052.88 Q194.004 1052.88 195.81 1049.34 Q197.639 1045.78 197.639 1038.67 Q197.639 1031.54 195.81 1028 Q194.004 1024.43 190.37 1024.43 M190.37 1020.73 Q196.18 1020.73 199.236 1025.34 Q202.315 1029.92 202.315 1038.67 Q202.315 1047.4 199.236 1052 Q196.18 1056.59 190.37 1056.59 Q184.56 1056.59 181.481 1052 Q178.426 1047.4 178.426 1038.67 Q178.426 1029.92 181.481 1025.34 Q184.56 1020.73 190.37 1020.73 Z" fill="#000000" fill-rule="evenodd" fill-opacity="1" /><path clip-path="url(#clip340)" d="M220.532 1024.43 Q216.921 1024.43 215.092 1028 Q213.287 1031.54 213.287 1038.67 Q213.287 1045.78 215.092 1049.34 Q216.921 1052.88 220.532 1052.88 Q224.166 1052.88 225.972 1049.34 Q227.801 1045.78 227.801 1038.67 Q227.801 1031.54 225.972 1028 Q224.166 1024.43 220.532 1024.43 M220.532 1020.73 Q226.342 1020.73 229.398 1025.34 Q232.476 1029.92 232.476 1038.67 Q232.476 1047.4 229.398 1052 Q226.342 1056.59 220.532 1056.59 Q214.722 1056.59 211.643 1052 Q208.588 1047.4 208.588 1038.67 Q208.588 1029.92 211.643 1025.34 Q214.722 1020.73 220.532 1020.73 Z" fill="#000000" fill-rule="evenodd" fill-opacity="1" /><path clip-path="url(#clip340)" d="M146.134 842.333 Q142.523 842.333 140.694 845.898 Q138.889 849.44 138.889 856.569 Q138.889 863.676 140.694 867.24 Q142.523 870.782 146.134 870.782 Q149.769 870.782 151.574 867.24 Q153.403 863.676 153.403 856.569 Q153.403 849.44 151.574 845.898 Q149.769 842.333 146.134 842.333 M146.134 838.63 Q151.944 838.63 155 843.236 Q158.079 847.819 158.079 856.569 Q158.079 865.296 155 869.903 Q151.944 874.486 146.134 874.486 Q140.324 874.486 137.245 869.903 Q134.19 865.296 134.19 856.569 Q134.19 847.819 137.245 843.236 Q140.324 838.63 146.134 838.63 Z" fill="#000000" fill-rule="evenodd" fill-opacity="1" /><path clip-path="url(#clip340)" d="M166.296 867.935 L171.18 867.935 L171.18 873.815 L166.296 873.815 L166.296 867.935 Z" fill="#000000" fill-rule="evenodd" fill-opacity="1" /><path clip-path="url(#clip340)" d="M185.393 869.879 L201.713 869.879 L201.713 873.815 L179.768 873.815 L179.768 869.879 Q182.43 867.125 187.014 862.495 Q191.62 857.842 192.801 856.5 Q195.046 853.977 195.926 852.241 Q196.828 850.481 196.828 848.792 Q196.828 846.037 194.884 844.301 Q192.963 842.565 189.861 842.565 Q187.662 842.565 185.208 843.329 Q182.778 844.092 180 845.643 L180 840.921 Q182.824 839.787 185.278 839.208 Q187.731 838.63 189.768 838.63 Q195.139 838.63 198.333 841.315 Q201.527 844 201.527 848.491 Q201.527 850.62 200.717 852.541 Q199.93 854.44 197.824 857.032 Q197.245 857.704 194.143 860.921 Q191.041 864.116 185.393 869.879 Z" fill="#000000" fill-rule="evenodd" fill-opacity="1" /><path clip-path="url(#clip340)" d="M211.574 839.255 L229.93 839.255 L229.93 843.19 L215.856 843.19 L215.856 851.662 Q216.875 851.315 217.893 851.153 Q218.912 850.967 219.93 850.967 Q225.717 850.967 229.097 854.139 Q232.476 857.31 232.476 862.727 Q232.476 868.305 229.004 871.407 Q225.532 874.486 219.213 874.486 Q217.037 874.486 214.768 874.115 Q212.523 873.745 210.115 873.004 L210.115 868.305 Q212.199 869.44 214.421 869.995 Q216.643 870.551 219.12 870.551 Q223.125 870.551 225.463 868.444 Q227.801 866.338 227.801 862.727 Q227.801 859.116 225.463 857.009 Q223.125 854.903 219.12 854.903 Q217.245 854.903 215.37 855.319 Q213.518 855.736 211.574 856.616 L211.574 839.255 Z" fill="#000000" fill-rule="evenodd" fill-opacity="1" /><path clip-path="url(#clip340)" d="M145.139 660.233 Q141.528 660.233 139.699 663.798 Q137.894 667.339 137.894 674.469 Q137.894 681.575 139.699 685.14 Q141.528 688.682 145.139 688.682 Q148.773 688.682 150.579 685.14 Q152.407 681.575 152.407 674.469 Q152.407 667.339 150.579 663.798 Q148.773 660.233 145.139 660.233 M145.139 656.529 Q150.949 656.529 154.005 661.136 Q157.083 665.719 157.083 674.469 Q157.083 683.196 154.005 687.802 Q150.949 692.386 145.139 692.386 Q139.329 692.386 136.25 687.802 Q133.195 683.196 133.195 674.469 Q133.195 665.719 136.25 661.136 Q139.329 656.529 145.139 656.529 Z" fill="#000000" fill-rule="evenodd" fill-opacity="1" /><path clip-path="url(#clip340)" d="M165.301 685.835 L170.185 685.835 L170.185 691.714 L165.301 691.714 L165.301 685.835 Z" fill="#000000" fill-rule="evenodd" fill-opacity="1" /><path clip-path="url(#clip340)" d="M180.417 657.154 L198.773 657.154 L198.773 661.089 L184.699 661.089 L184.699 669.562 Q185.717 669.214 186.736 669.052 Q187.754 668.867 188.773 668.867 Q194.56 668.867 197.94 672.038 Q201.319 675.21 201.319 680.626 Q201.319 686.205 197.847 689.307 Q194.375 692.386 188.055 692.386 Q185.879 692.386 183.611 692.015 Q181.366 691.645 178.958 690.904 L178.958 686.205 Q181.041 687.339 183.264 687.895 Q185.486 688.45 187.963 688.45 Q191.967 688.45 194.305 686.344 Q196.643 684.237 196.643 680.626 Q196.643 677.015 194.305 674.909 Q191.967 672.802 187.963 672.802 Q186.088 672.802 184.213 673.219 Q182.361 673.636 180.417 674.515 L180.417 657.154 Z" fill="#000000" fill-rule="evenodd" fill-opacity="1" /><path clip-path="url(#clip340)" d="M220.532 660.233 Q216.921 660.233 215.092 663.798 Q213.287 667.339 213.287 674.469 Q213.287 681.575 215.092 685.14 Q216.921 688.682 220.532 688.682 Q224.166 688.682 225.972 685.14 Q227.801 681.575 227.801 674.469 Q227.801 667.339 225.972 663.798 Q224.166 660.233 220.532 660.233 M220.532 656.529 Q226.342 656.529 229.398 661.136 Q232.476 665.719 232.476 674.469 Q232.476 683.196 229.398 687.802 Q226.342 692.386 220.532 692.386 Q214.722 692.386 211.643 687.802 Q208.588 683.196 208.588 674.469 Q208.588 665.719 211.643 661.136 Q214.722 656.529 220.532 656.529 Z" fill="#000000" fill-rule="evenodd" fill-opacity="1" /><path clip-path="url(#clip340)" d="M146.134 478.133 Q142.523 478.133 140.694 481.697 Q138.889 485.239 138.889 492.369 Q138.889 499.475 140.694 503.04 Q142.523 506.582 146.134 506.582 Q149.769 506.582 151.574 503.04 Q153.403 499.475 153.403 492.369 Q153.403 485.239 151.574 481.697 Q149.769 478.133 146.134 478.133 M146.134 474.429 Q151.944 474.429 155 479.035 Q158.079 483.619 158.079 492.369 Q158.079 501.095 155 505.702 Q151.944 510.285 146.134 510.285 Q140.324 510.285 137.245 505.702 Q134.19 501.095 134.19 492.369 Q134.19 483.619 137.245 479.035 Q140.324 474.429 146.134 474.429 Z" fill="#000000" fill-rule="evenodd" fill-opacity="1" /><path clip-path="url(#clip340)" d="M166.296 503.734 L171.18 503.734 L171.18 509.614 L166.296 509.614 L166.296 503.734 Z" fill="#000000" fill-rule="evenodd" fill-opacity="1" /><path clip-path="url(#clip340)" d="M180.185 475.054 L202.407 475.054 L202.407 477.045 L189.861 509.614 L184.977 509.614 L196.782 478.989 L180.185 478.989 L180.185 475.054 Z" fill="#000000" fill-rule="evenodd" fill-opacity="1" /><path clip-path="url(#clip340)" d="M211.574 475.054 L229.93 475.054 L229.93 478.989 L215.856 478.989 L215.856 487.461 Q216.875 487.114 217.893 486.952 Q218.912 486.767 219.93 486.767 Q225.717 486.767 229.097 489.938 Q232.476 493.109 232.476 498.526 Q232.476 504.105 229.004 507.207 Q225.532 510.285 219.213 510.285 Q217.037 510.285 214.768 509.915 Q212.523 509.544 210.115 508.804 L210.115 504.105 Q212.199 505.239 214.421 505.794 Q216.643 506.35 219.12 506.35 Q223.125 506.35 225.463 504.244 Q227.801 502.137 227.801 498.526 Q227.801 494.915 225.463 492.808 Q223.125 490.702 219.12 490.702 Q217.245 490.702 215.37 491.119 Q213.518 491.535 211.574 492.415 L211.574 475.054 Z" fill="#000000" fill-rule="evenodd" fill-opacity="1" /><path clip-path="url(#clip340)" d="M135.949 323.578 L143.588 323.578 L143.588 297.213 L135.278 298.879 L135.278 294.62 L143.542 292.954 L148.218 292.954 L148.218 323.578 L155.856 323.578 L155.856 327.514 L135.949 327.514 L135.949 323.578 Z" fill="#000000" fill-rule="evenodd" fill-opacity="1" /><path clip-path="url(#clip340)" d="M165.301 321.634 L170.185 321.634 L170.185 327.514 L165.301 327.514 L165.301 321.634 Z" fill="#000000" fill-rule="evenodd" fill-opacity="1" /><path clip-path="url(#clip340)" d="M190.37 296.032 Q186.759 296.032 184.93 299.597 Q183.125 303.139 183.125 310.268 Q183.125 317.375 184.93 320.94 Q186.759 324.481 190.37 324.481 Q194.004 324.481 195.81 320.94 Q197.639 317.375 197.639 310.268 Q197.639 303.139 195.81 299.597 Q194.004 296.032 190.37 296.032 M190.37 292.329 Q196.18 292.329 199.236 296.935 Q202.315 301.518 202.315 310.268 Q202.315 318.995 199.236 323.602 Q196.18 328.185 190.37 328.185 Q184.56 328.185 181.481 323.602 Q178.426 318.995 178.426 310.268 Q178.426 301.518 181.481 296.935 Q184.56 292.329 190.37 292.329 Z" fill="#000000" fill-rule="evenodd" fill-opacity="1" /><path clip-path="url(#clip340)" d="M220.532 296.032 Q216.921 296.032 215.092 299.597 Q213.287 303.139 213.287 310.268 Q213.287 317.375 215.092 320.94 Q216.921 324.481 220.532 324.481 Q224.166 324.481 225.972 320.94 Q227.801 317.375 227.801 310.268 Q227.801 303.139 225.972 299.597 Q224.166 296.032 220.532 296.032 M220.532 292.329 Q226.342 292.329 229.398 296.935 Q232.476 301.518 232.476 310.268 Q232.476 318.995 229.398 323.602 Q226.342 328.185 220.532 328.185 Q214.722 328.185 211.643 323.602 Q208.588 318.995 208.588 310.268 Q208.588 301.518 211.643 296.935 Q214.722 292.329 220.532 292.329 Z" fill="#000000" fill-rule="evenodd" fill-opacity="1" /><path clip-path="url(#clip340)" d="M68.9014 692.903 L49.6133 692.903 L49.6133 687.047 L99.1385 687.047 L99.1385 692.903 L93.7913 692.903 Q96.9742 694.75 98.5338 697.582 Q100.062 700.383 100.062 704.33 Q100.062 710.791 94.9053 714.865 Q89.7491 718.907 81.3464 718.907 Q72.9436 718.907 67.7874 714.865 Q62.6312 710.791 62.6312 704.33 Q62.6312 700.383 64.1908 697.582 Q65.7186 694.75 68.9014 692.903 M81.3464 712.86 Q87.8076 712.86 91.4997 710.218 Q95.16 707.545 95.16 702.898 Q95.16 698.251 91.4997 695.577 Q87.8076 692.903 81.3464 692.903 Q74.8852 692.903 71.2249 695.577 Q67.5328 698.251 67.5328 702.898 Q67.5328 707.545 71.2249 710.218 Q74.8852 712.86 81.3464 712.86 Z" fill="#000000" fill-rule="evenodd" fill-opacity="1" /><path clip-path="url(#clip340)" d="M79.8504 644.492 L82.715 644.492 L82.715 671.419 Q88.7624 671.037 91.9453 667.791 Q95.0963 664.512 95.0963 658.688 Q95.0963 655.314 94.2688 652.163 Q93.4412 648.98 91.7861 645.861 L97.3243 645.861 Q98.6611 649.012 99.3613 652.322 Q100.062 655.632 100.062 659.038 Q100.062 667.568 95.0963 672.565 Q90.1311 677.53 81.6647 677.53 Q72.9118 677.53 67.7874 672.82 Q62.6312 668.077 62.6312 660.056 Q62.6312 652.863 67.2782 648.694 Q71.8933 644.492 79.8504 644.492 M78.1317 650.349 Q73.3256 650.412 70.461 653.054 Q67.5965 655.664 67.5965 659.993 Q67.5965 664.894 70.3655 667.854 Q73.1346 670.783 78.1635 671.228 L78.1317 650.349 Z" fill="#000000" fill-rule="evenodd" fill-opacity="1" /><path clip-path="url(#clip340)" d="M81.2191 618.679 Q81.2191 625.777 82.8423 628.514 Q84.4656 631.252 88.3805 631.252 Q91.4997 631.252 93.3457 629.215 Q95.16 627.146 95.16 623.613 Q95.16 618.743 91.7225 615.815 Q88.2532 612.855 82.524 612.855 L81.2191 612.855 L81.2191 618.679 M78.8001 606.998 L99.1385 606.998 L99.1385 612.855 L93.7277 612.855 Q96.9742 614.86 98.5338 617.852 Q100.062 620.844 100.062 625.172 Q100.062 630.647 97.006 633.893 Q93.9187 637.108 88.7624 637.108 Q82.7468 637.108 79.6913 633.098 Q76.6358 629.055 76.6358 621.066 L76.6358 612.855 L76.0628 612.855 Q72.0206 612.855 69.8245 615.528 Q67.5965 618.17 67.5965 622.976 Q67.5965 626.032 68.3285 628.928 Q69.0606 631.825 70.5247 634.498 L65.1138 634.498 Q63.8725 631.283 63.2678 628.26 Q62.6312 625.236 62.6312 622.371 Q62.6312 614.637 66.6416 610.818 Q70.652 606.998 78.8001 606.998 Z" fill="#000000" fill-rule="evenodd" fill-opacity="1" /><path clip-path="url(#clip340)" d="M53.3691 589.142 L63.4906 589.142 L63.4906 577.079 L68.0421 577.079 L68.0421 589.142 L87.3938 589.142 Q91.7543 589.142 92.9956 587.965 Q94.2369 586.755 94.2369 583.095 L94.2369 577.079 L99.1385 577.079 L99.1385 583.095 Q99.1385 589.875 96.6241 592.453 Q94.0778 595.031 87.3938 595.031 L68.0421 595.031 L68.0421 599.328 L63.4906 599.328 L63.4906 595.031 L53.3691 595.031 L53.3691 589.142 Z" fill="#000000" fill-rule="evenodd" fill-opacity="1" /><path clip-path="url(#clip340)" d="M77.6224 539.745 L99.1385 539.745 L99.1385 545.601 L77.8134 545.601 Q72.7527 545.601 70.2382 547.574 Q67.7238 549.548 67.7238 553.495 Q67.7238 558.237 70.7475 560.974 Q73.7712 563.711 78.9911 563.711 L99.1385 563.711 L99.1385 569.6 L49.6133 569.6 L49.6133 563.711 L69.0287 563.711 Q65.8141 561.611 64.2226 558.778 Q62.6312 555.913 62.6312 552.19 Q62.6312 546.047 66.4506 542.896 Q70.2382 539.745 77.6224 539.745 Z" fill="#000000" fill-rule="evenodd" fill-opacity="1" /><path clip-path="url(#clip340)" d="M516.094 12.096 L528.287 12.096 L543.721 53.2532 L559.236 12.096 L571.429 12.096 L571.429 72.576 L563.449 72.576 L563.449 19.4686 L547.853 60.9499 L539.629 60.9499 L524.033 19.4686 L524.033 72.576 L516.094 72.576 L516.094 12.096 Z" fill="#000000" fill-rule="evenodd" fill-opacity="1" /><path clip-path="url(#clip340)" d="M604.93 32.4315 Q598.935 32.4315 595.451 37.1306 Q591.967 41.7891 591.967 49.9314 Q591.967 58.0738 595.41 62.7728 Q598.894 67.4314 604.93 67.4314 Q610.885 67.4314 614.368 62.7323 Q617.852 58.0333 617.852 49.9314 Q617.852 41.8701 614.368 37.1711 Q610.885 32.4315 604.93 32.4315 M604.93 26.1121 Q614.652 26.1121 620.202 32.4315 Q625.752 38.7509 625.752 49.9314 Q625.752 61.0714 620.202 67.4314 Q614.652 73.7508 604.93 73.7508 Q595.167 73.7508 589.617 67.4314 Q584.108 61.0714 584.108 49.9314 Q584.108 38.7509 589.617 32.4315 Q595.167 26.1121 604.93 26.1121 Z" fill="#000000" fill-rule="evenodd" fill-opacity="1" /><path clip-path="url(#clip340)" d="M638.431 12.096 L650.624 12.096 L666.058 53.2532 L681.573 12.096 L693.766 12.096 L693.766 72.576 L685.786 72.576 L685.786 19.4686 L670.19 60.9499 L661.967 60.9499 L646.371 19.4686 L646.371 72.576 L638.431 72.576 L638.431 12.096 Z" fill="#000000" fill-rule="evenodd" fill-opacity="1" /><path clip-path="url(#clip340)" d="M744.565 18.8205 L744.565 65.8515 L754.449 65.8515 Q766.966 65.8515 772.759 60.1802 Q778.592 54.509 778.592 42.2752 Q778.592 30.1225 772.759 24.4918 Q766.966 18.8205 754.449 18.8205 L744.565 18.8205 M736.382 12.096 L753.193 12.096 Q770.774 12.096 778.997 19.4281 Q787.221 26.7198 787.221 42.2752 Q787.221 57.9117 778.957 65.2439 Q770.693 72.576 753.193 72.576 L736.382 72.576 L736.382 12.096 Z" fill="#000000" fill-rule="evenodd" fill-opacity="1" /><path clip-path="url(#clip340)" d="M799.94 27.2059 L807.394 27.2059 L807.394 72.576 L799.94 72.576 L799.94 27.2059 M799.94 9.54393 L807.394 9.54393 L807.394 18.9825 L799.94 18.9825 L799.94 9.54393 Z" fill="#000000" fill-rule="evenodd" fill-opacity="1" /><path clip-path="url(#clip340)" d="M851.914 28.5427 L851.914 35.5912 Q848.754 33.9709 845.351 33.1607 Q841.948 32.3505 838.302 32.3505 Q832.753 32.3505 829.958 34.0519 Q827.203 35.7533 827.203 39.156 Q827.203 41.7486 829.188 43.2475 Q831.173 44.7058 837.168 46.0426 L839.72 46.6097 Q847.66 48.3111 850.982 51.4303 Q854.344 54.509 854.344 60.0587 Q854.344 66.3781 849.321 70.0644 Q844.338 73.7508 835.588 73.7508 Q831.943 73.7508 827.973 73.0216 Q824.043 72.3329 819.668 70.9151 L819.668 63.2184 Q823.8 65.3654 827.811 66.4591 Q831.821 67.5124 835.75 67.5124 Q841.017 67.5124 843.852 65.73 Q846.688 63.9071 846.688 60.6258 Q846.688 57.5877 844.622 55.9673 Q842.596 54.3469 835.669 52.8481 L833.077 52.2405 Q826.15 50.7821 823.071 47.7845 Q819.992 44.7463 819.992 39.4801 Q819.992 33.0797 824.529 29.5959 Q829.066 26.1121 837.411 26.1121 Q841.543 26.1121 845.189 26.7198 Q848.835 27.3274 851.914 28.5427 Z" fill="#000000" fill-rule="evenodd" fill-opacity="1" /><path clip-path="url(#clip340)" d="M873.586 14.324 L873.586 27.2059 L888.939 27.2059 L888.939 32.9987 L873.586 32.9987 L873.586 57.6282 Q873.586 63.1779 875.085 64.7578 Q876.624 66.3376 881.283 66.3376 L888.939 66.3376 L888.939 72.576 L881.283 72.576 Q872.654 72.576 869.373 69.3758 Q866.092 66.1351 866.092 57.6282 L866.092 32.9987 L860.623 32.9987 L860.623 27.2059 L866.092 27.2059 L866.092 14.324 L873.586 14.324 Z" fill="#000000" fill-rule="evenodd" fill-opacity="1" /><polyline clip-path="url(#clip342)" style="stroke:#000000; stroke-linecap:butt; stroke-linejoin:round; stroke-width:4; stroke-opacity:1; fill:none" points="
  252.276,1079.57 258.139,1073.7 312.347,1019.49 344.924,986.918 372.468,959.374 402.388,929.455 429.971,901.871 459.543,872.299 493.806,838.036 524.254,807.588 
  550.955,780.887 580.066,751.777 609.349,722.493 641.726,690.116 672.532,659.31 704.563,627.279 731.526,600.316 764.446,567.397 794.601,537.241 822.453,509.389 
  850.665,481.177 882.284,449.558 910.935,420.907 943.739,388.103 974.112,357.73 1004.06,327.785 1033.13,298.712 1062.93,268.907 1095.59,236.253 1143.02,188.818 
  1152.76,179.086 
  "/>
<polyline clip-path="url(#clip342)" style="stroke:#808080; stroke-linecap:butt; stroke-linejoin:round; stroke-width:4; stroke-opacity:1; fill:none" stroke-dasharray="2, 4" points="
  -648.203,-3775.17 2053.24,-3775.17 
  "/>
<circle clip-path="url(#clip342)" cx="1058.26" cy="270.851" r="14" fill="#e26f46" fill-rule="evenodd" fill-opacity="1" stroke="none"/>
<circle clip-path="url(#clip342)" cx="1045.88" cy="255.019" r="14" fill="#e26f46" fill-rule="evenodd" fill-opacity="1" stroke="none"/>
<circle clip-path="url(#clip342)" cx="798.718" cy="249.494" r="14" fill="#e26f46" fill-rule="evenodd" fill-opacity="1" stroke="none"/>
<circle clip-path="url(#clip342)" cx="807.164" cy="220.017" r="14" fill="#e26f46" fill-rule="evenodd" fill-opacity="1" stroke="none"/>
<path clip-path="url(#clip340)" d="
M975.279 1047.86 L1122.74 1047.86 L1122.74 944.178 L975.279 944.178  Z
  " fill="#ffffff" fill-rule="evenodd" fill-opacity="1"/>
<polyline clip-path="url(#clip340)" style="stroke:#000000; stroke-linecap:butt; stroke-linejoin:round; stroke-width:4; stroke-opacity:1; fill:none" points="
  975.279,1047.86 1122.74,1047.86 1122.74,944.178 975.279,944.178 975.279,1047.86 
  "/>
<circle clip-path="url(#clip340)" cx="1015.3" cy="996.018" r="23" fill="#e26f46" fill-rule="evenodd" fill-opacity="1" stroke="none"/>
<path clip-path="url(#clip340)" d="M1055.32 978.738 L1060 978.738 L1060 992.905 L1076.99 992.905 L1076.99 978.738 L1081.66 978.738 L1081.66 1013.3 L1076.99 1013.3 L1076.99 996.84 L1060 996.84 L1060 1013.3 L1055.32 1013.3 L1055.32 978.738 Z" fill="#000000" fill-rule="evenodd" fill-opacity="1" /><path clip-path="url(#clip340)" d="M1089.93 1010.75 L1094.65 1010.75 L1094.65 996.608 L1089.49 997.557 L1089.49 994.872 L1094.81 993.97 L1097.98 993.97 L1097.98 1010.75 L1102.73 1010.75 L1102.73 1013.3 L1089.93 1013.3 L1089.93 1010.75 Z" fill="#000000" fill-rule="evenodd" fill-opacity="1" /></svg>
