<?xml version="1.0" encoding="utf-8"?>
<svg xmlns="http://www.w3.org/2000/svg" xmlns:xlink="http://www.w3.org/1999/xlink" width="300" height="330" viewBox="0 0 1200 1320">
<defs>
  <clipPath id="clip310">
    <rect x="0" y="0" width="1200" height="1320"/>
  </clipPath>
</defs>
<path clip-path="url(#clip310)" d="
M0 1320 L1200 1320 L1200 0 L0 0  Z
  " fill="#ffffff" fill-rule="evenodd" fill-opacity="1"/>
<defs>
  <clipPath id="clip311">
    <rect x="264" y="132" width="925" height="925"/>
  </clipPath>
</defs>
<path clip-path="url(#clip310)" d="
M224.857 1093.28 L1152.76 1093.28 L1152.76 165.376 L224.857 165.376  Z
  " fill="#ffffff" fill-rule="evenodd" fill-opacity="1"/>
<defs>
  <clipPath id="clip312">
    <rect x="224" y="165" width="929" height="929"/>
  </clipPath>
</defs>
<polyline clip-path="url(#clip312)" style="stroke:#000000; stroke-linecap:butt; stroke-linejoin:round; stroke-width:2; stroke-opacity:0.1; fill:none" points="
  267.034,1093.28 267.034,165.376 
  "/>
<polyline clip-path="url(#clip312)" style="stroke:#000000; stroke-linecap:butt; stroke-linejoin:round; stroke-width:2; stroke-opacity:0.1; fill:none" points="
  557.532,1093.28 557.532,165.376 
  "/>
<polyline clip-path="url(#clip312)" style="stroke:#000000; stroke-linecap:butt; stroke-linejoin:round; stroke-width:2; stroke-opacity:0.1; fill:none" points="
  848.03,1093.28 848.03,165.376 
  "/>
<polyline clip-path="url(#clip312)" style="stroke:#000000; stroke-linecap:butt; stroke-linejoin:round; stroke-width:2; stroke-opacity:0.1; fill:none" points="
  1138.53,1093.28 1138.53,165.376 
  "/>
<polyline clip-path="url(#clip310)" style="stroke:#000000; stroke-linecap:butt; stroke-linejoin:round; stroke-width:4; stroke-opacity:1; fill:none" points="
  224.857,1093.28 1152.76,1093.28 
  "/>
<polyline clip-path="url(#clip310)" style="stroke:#000000; stroke-linecap:butt; stroke-linejoin:round; stroke-width:4; stroke-opacity:1; fill:none" points="
  267.034,1093.28 267.034,1074.84 
  "/>
<polyline clip-path="url(#clip310)" style="stroke:#000000; stroke-linecap:butt; stroke-linejoin:round; stroke-width:4; stroke-opacity:1; fill:none" points="
  557.532,1093.28 557.532,1074.84 
  "/>
<polyline clip-path="url(#clip310)" style="stroke:#000000; stroke-linecap:butt; stroke-linejoin:round; stroke-width:4; stroke-opacity:1; fill:none" points="
  848.03,1093.28 848.03,1074.84 
  "/>
<polyline clip-path="url(#clip310)" style="stroke:#000000; stroke-linecap:butt; stroke-linejoin:round; stroke-width:4; stroke-opacity:1; fill:none" points="
  1138.53,1093.28 1138.53,1074.84 
  "/>
<path clip-path="url(#clip310)" d="M244.418 1115.55 Q240.807 1115.55 238.978 1119.12 Q237.173 1122.66 237.173 1129.79 Q237.173 1136.9 238.978 1140.46 Q240.807 1144 244.418 1144 Q248.052 1144 249.858 1140.46 Q251.687 1136.9 251.687 1129.79 Q251.687 1122.66 249.858 1119.12 Q248.052 1115.55 244.418 1115.55 M244.418 1111.85 Q250.228 1111.85 253.284 1116.46 Q256.363 1121.04 256.363 1129.79 Q256.363 1138.52 253.284 1143.12 Q250.228 1147.71 244.418 1147.71 Q238.608 1147.71 235.529 1143.12 Q232.474 1138.52 232.474 1129.79 Q232.474 1121.04 235.529 1116.46 Q238.608 1111.85 244.418 1111.85 Z" fill="#000000" fill-rule="evenodd" fill-opacity="1" /><path clip-path="url(#clip310)" d="M264.58 1141.16 L269.464 1141.16 L269.464 1147.04 L264.58 1147.04 L264.58 1141.16 Z" fill="#000000" fill-rule="evenodd" fill-opacity="1" /><path clip-path="url(#clip310)" d="M289.649 1115.55 Q286.038 1115.55 284.21 1119.12 Q282.404 1122.66 282.404 1129.79 Q282.404 1136.9 284.21 1140.46 Q286.038 1144 289.649 1144 Q293.284 1144 295.089 1140.46 Q296.918 1136.9 296.918 1129.79 Q296.918 1122.66 295.089 1119.12 Q293.284 1115.55 289.649 1115.55 M289.649 1111.85 Q295.46 1111.85 298.515 1116.46 Q301.594 1121.04 301.594 1129.79 Q301.594 1138.52 298.515 1143.12 Q295.46 1147.71 289.649 1147.71 Q283.839 1147.71 280.761 1143.12 Q277.705 1138.52 277.705 1129.79 Q277.705 1121.04 280.761 1116.46 Q283.839 1111.85 289.649 1111.85 Z" fill="#000000" fill-rule="evenodd" fill-opacity="1" /><path clip-path="url(#clip310)" d="M535.414 1115.55 Q531.803 1115.55 529.974 1119.12 Q528.169 1122.66 528.169 1129.79 Q528.169 1136.9 529.974 1140.46 Q531.803 1144 535.414 1144 Q539.048 1144 540.854 1140.46 Q542.683 1136.9 542.683 1129.79 Q542.683 1122.66 540.854 1119.12 Q539.048 1115.55 535.414 1115.55 M535.414 1111.85 Q541.224 1111.85 544.28 1116.46 Q547.359 1121.04 547.359 1129.79 Q547.359 1138.52 544.28 1143.12 Q541.224 1147.71 535.414 1147.71 Q529.604 1147.71 526.525 1143.12 Q523.47 1138.52 523.47 1129.79 Q523.47 1121.04 526.525 1116.46 Q529.604 1111.85 535.414 1111.85 Z" fill="#000000" fill-rule="evenodd" fill-opacity="1" /><path clip-path="url(#clip310)" d="M555.576 1141.16 L560.46 1141.16 L560.46 1147.04 L555.576 1147.04 L555.576 1141.16 Z" fill="#000000" fill-rule="evenodd" fill-opacity="1" /><path clip-path="url(#clip310)" d="M570.692 1112.48 L589.048 1112.48 L589.048 1116.41 L574.974 1116.41 L574.974 1124.88 Q575.993 1124.54 577.011 1124.37 Q578.03 1124.19 579.048 1124.19 Q584.835 1124.19 588.215 1127.36 Q591.594 1130.53 591.594 1135.95 Q591.594 1141.53 588.122 1144.63 Q584.65 1147.71 578.331 1147.71 Q576.155 1147.71 573.886 1147.34 Q571.641 1146.97 569.233 1146.23 L569.233 1141.53 Q571.317 1142.66 573.539 1143.22 Q575.761 1143.77 578.238 1143.77 Q582.243 1143.77 584.581 1141.67 Q586.918 1139.56 586.918 1135.95 Q586.918 1132.34 584.581 1130.23 Q582.243 1128.12 578.238 1128.12 Q576.363 1128.12 574.488 1128.54 Q572.636 1128.96 570.692 1129.84 L570.692 1112.48 Z" fill="#000000" fill-rule="evenodd" fill-opacity="1" /><path clip-path="url(#clip310)" d="M815.183 1143.1 L822.822 1143.1 L822.822 1116.73 L814.512 1118.4 L814.512 1114.14 L822.776 1112.48 L827.452 1112.48 L827.452 1143.1 L835.091 1143.1 L835.091 1147.04 L815.183 1147.04 L815.183 1143.1 Z" fill="#000000" fill-rule="evenodd" fill-opacity="1" /><path clip-path="url(#clip310)" d="M844.535 1141.16 L849.419 1141.16 L849.419 1147.04 L844.535 1147.04 L844.535 1141.16 Z" fill="#000000" fill-rule="evenodd" fill-opacity="1" /><path clip-path="url(#clip310)" d="M869.604 1115.55 Q865.993 1115.55 864.165 1119.12 Q862.359 1122.66 862.359 1129.79 Q862.359 1136.9 864.165 1140.46 Q865.993 1144 869.604 1144 Q873.239 1144 875.044 1140.46 Q876.873 1136.9 876.873 1129.79 Q876.873 1122.66 875.044 1119.12 Q873.239 1115.55 869.604 1115.55 M869.604 1111.85 Q875.414 1111.85 878.47 1116.46 Q881.549 1121.04 881.549 1129.79 Q881.549 1138.52 878.47 1143.12 Q875.414 1147.71 869.604 1147.71 Q863.794 1147.71 860.715 1143.12 Q857.66 1138.52 857.66 1129.79 Q857.66 1121.04 860.715 1116.46 Q863.794 1111.85 869.604 1111.85 Z" fill="#000000" fill-rule="evenodd" fill-opacity="1" /><path clip-path="url(#clip310)" d="M1106.18 1143.1 L1113.82 1143.1 L1113.82 1116.73 L1105.51 1118.4 L1105.51 1114.14 L1113.77 1112.48 L1118.45 1112.48 L1118.45 1143.1 L1126.09 1143.1 L1126.09 1147.04 L1106.18 1147.04 L1106.18 1143.1 Z" fill="#000000" fill-rule="evenodd" fill-opacity="1" /><path clip-path="url(#clip310)" d="M1135.53 1141.16 L1140.42 1141.16 L1140.42 1147.04 L1135.53 1147.04 L1135.53 1141.16 Z" fill="#000000" fill-rule="evenodd" fill-opacity="1" /><path clip-path="url(#clip310)" d="M1150.65 1112.48 L1169 1112.48 L1169 1116.41 L1154.93 1116.41 L1154.93 1124.88 Q1155.95 1124.54 1156.97 1124.37 Q1157.98 1124.19 1159 1124.19 Q1164.79 1124.19 1168.17 1127.36 Q1171.55 1130.53 1171.55 1135.95 Q1171.55 1141.53 1168.08 1144.63 Q1164.6 1147.71 1158.29 1147.71 Q1156.11 1147.71 1153.84 1147.34 Q1151.6 1146.97 1149.19 1146.23 L1149.19 1141.53 Q1151.27 1142.66 1153.49 1143.22 Q1155.72 1143.77 1158.19 1143.77 Q1162.2 1143.77 1164.54 1141.67 Q1166.87 1139.56 1166.87 1135.95 Q1166.87 1132.34 1164.54 1130.23 Q1162.2 1128.12 1158.19 1128.12 Q1156.32 1128.12 1154.44 1128.54 Q1152.59 1128.96 1150.65 1129.84 L1150.65 1112.48 Z" fill="#000000" fill-rule="evenodd" fill-opacity="1" /><path clip-path="url(#clip310)" d="M643.769 1204.15 Q643.769 1197.69 641.095 1194.03 Q638.453 1190.33 633.807 1190.33 Q629.16 1190.33 626.486 1194.03 Q623.844 1197.69 623.844 1204.15 Q623.844 1210.61 626.486 1214.3 Q629.16 1217.96 633.807 1217.96 Q638.453 1217.96 641.095 1214.3 Q643.769 1210.61 643.769 1204.15 M623.844 1191.7 Q625.69 1188.52 628.491 1186.99 Q631.324 1185.43 635.239 1185.43 Q641.732 1185.43 645.774 1190.59 Q649.848 1195.74 649.848 1204.15 Q649.848 1212.55 645.774 1217.71 Q641.732 1222.86 635.239 1222.86 Q631.324 1222.86 628.491 1221.33 Q625.69 1219.78 623.844 1216.59 L623.844 1221.94 L617.956 1221.94 L617.956 1172.41 L623.844 1172.41 L623.844 1191.7 Z" fill="#000000" fill-rule="evenodd" fill-opacity="1" /><path clip-path="url(#clip310)" d="M659.556 1186.29 L665.412 1186.29 L665.412 1221.94 L659.556 1221.94 L659.556 1186.29 M659.556 1172.41 L665.412 1172.41 L665.412 1179.83 L659.556 1179.83 L659.556 1172.41 Z" fill="#000000" fill-rule="evenodd" fill-opacity="1" /><path clip-path="url(#clip310)" d="M698.323 1191.77 Q697.336 1191.19 696.159 1190.94 Q695.013 1190.65 693.612 1190.65 Q688.647 1190.65 685.973 1193.9 Q683.332 1197.11 683.332 1203.16 L683.332 1221.94 L677.443 1221.94 L677.443 1186.29 L683.332 1186.29 L683.332 1191.83 Q685.178 1188.58 688.138 1187.02 Q691.098 1185.43 695.331 1185.43 Q695.936 1185.43 696.668 1185.53 Q697.4 1185.59 698.291 1185.75 L698.323 1191.77 Z" fill="#000000" fill-rule="evenodd" fill-opacity="1" /><path clip-path="url(#clip310)" d="M710.259 1176.17 L710.259 1186.29 L722.322 1186.29 L722.322 1190.84 L710.259 1190.84 L710.259 1210.19 Q710.259 1214.56 711.436 1215.8 Q712.646 1217.04 716.306 1217.04 L722.322 1217.04 L722.322 1221.94 L716.306 1221.94 Q709.527 1221.94 706.948 1219.43 Q704.37 1216.88 704.37 1210.19 L704.37 1190.84 L700.074 1190.84 L700.074 1186.29 L704.37 1186.29 L704.37 1176.17 L710.259 1176.17 Z" fill="#000000" fill-rule="evenodd" fill-opacity="1" /><path clip-path="url(#clip310)" d="M759.657 1200.42 L759.657 1221.94 L753.8 1221.94 L753.8 1200.61 Q753.8 1195.55 751.827 1193.04 Q749.853 1190.52 745.907 1190.52 Q741.164 1190.52 738.427 1193.55 Q735.69 1196.57 735.69 1201.79 L735.69 1221.94 L729.801 1221.94 L729.801 1172.41 L735.69 1172.41 L735.69 1191.83 Q737.79 1188.62 740.623 1187.02 Q743.488 1185.43 747.212 1185.43 Q753.354 1185.43 756.506 1189.25 Q759.657 1193.04 759.657 1200.42 Z" fill="#000000" fill-rule="evenodd" fill-opacity="1" /><polyline clip-path="url(#clip312)" style="stroke:#000000; stroke-linecap:butt; stroke-linejoin:round; stroke-width:2; stroke-opacity:0.1; fill:none" points="
  224.857,1051.1 1152.76,1051.1 
  "/>
<polyline clip-path="url(#clip312)" style="stroke:#000000; stroke-linecap:butt; stroke-linejoin:round; stroke-width:2; stroke-opacity:0.1; fill:none" points="
  224.857,760.6 1152.76,760.6 
  "/>
<polyline clip-path="url(#clip312)" style="stroke:#000000; stroke-linecap:butt; stroke-linejoin:round; stroke-width:2; stroke-opacity:0.1; fill:none" points="
  224.857,470.102 1152.76,470.102 
  "/>
<polyline clip-path="url(#clip312)" style="stroke:#000000; stroke-linecap:butt; stroke-linejoin:round; stroke-width:2; stroke-opacity:0.1; fill:none" points="
  224.857,179.604 1152.76,179.604 
  "/>
<polyline clip-path="url(#clip310)" style="stroke:#000000; stroke-linecap:butt; stroke-linejoin:round; stroke-width:4; stroke-opacity:1; fill:none" points="
  224.857,1093.28 224.857,165.376 
  "/>
<polyline clip-path="url(#clip310)" style="stroke:#000000; stroke-linecap:butt; stroke-linejoin:round; stroke-width:4; stroke-opacity:1; fill:none" points="
  224.857,1051.1 243.754,1051.1 
  "/>
<polyline clip-path="url(#clip310)" style="stroke:#000000; stroke-linecap:butt; stroke-linejoin:round; stroke-width:4; stroke-opacity:1; fill:none" points="
  224.857,760.6 243.754,760.6 
  "/>
<polyline clip-path="url(#clip310)" style="stroke:#000000; stroke-linecap:butt; stroke-linejoin:round; stroke-width:4; stroke-opacity:1; fill:none" points="
  224.857,470.102 243.754,470.102 
  "/>
<polyline clip-path="url(#clip310)" style="stroke:#000000; stroke-linecap:butt; stroke-linejoin:round; stroke-width:4; stroke-opacity:1; fill:none" points="
  224.857,179.604 243.754,179.604 
  "/>
<path clip-path="url(#clip310)" d="M147.881 1036.9 Q144.27 1036.9 142.441 1040.46 Q140.636 1044 140.636 1051.13 Q140.636 1058.24 142.441 1061.8 Q144.27 1065.35 147.881 1065.35 Q151.515 1065.35 153.321 1061.8 Q155.149 1058.24 155.149 1051.13 Q155.149 1044 153.321 1040.46 Q151.515 1036.9 147.881 1036.9 M147.881 1033.19 Q153.691 1033.19 156.747 1037.8 Q159.825 1042.38 159.825 1051.13 Q159.825 1059.86 156.747 1064.47 Q153.691 1069.05 147.881 1069.05 Q142.071 1069.05 138.992 1064.47 Q135.937 1059.86 135.937 1051.13 Q135.937 1042.38 138.992 1037.8 Q142.071 1033.19 147.881 1033.19 Z" fill="#000000" fill-rule="evenodd" fill-opacity="1" /><path clip-path="url(#clip310)" d="M168.043 1062.5 L172.927 1062.5 L172.927 1068.38 L168.043 1068.38 L168.043 1062.5 Z" fill="#000000" fill-rule="evenodd" fill-opacity="1" /><path clip-path="url(#clip310)" d="M193.112 1036.9 Q189.501 1036.9 187.672 1040.46 Q185.867 1044 185.867 1051.13 Q185.867 1058.24 187.672 1061.8 Q189.501 1065.35 193.112 1065.35 Q196.746 1065.35 198.552 1061.8 Q200.381 1058.24 200.381 1051.13 Q200.381 1044 198.552 1040.46 Q196.746 1036.9 193.112 1036.9 M193.112 1033.19 Q198.922 1033.19 201.978 1037.8 Q205.057 1042.38 205.057 1051.13 Q205.057 1059.86 201.978 1064.47 Q198.922 1069.05 193.112 1069.05 Q187.302 1069.05 184.223 1064.47 Q181.168 1059.86 181.168 1051.13 Q181.168 1042.38 184.223 1037.8 Q187.302 1033.19 193.112 1033.19 Z" fill="#000000" fill-rule="evenodd" fill-opacity="1" /><path clip-path="url(#clip310)" d="M148.876 746.399 Q145.265 746.399 143.436 749.964 Q141.631 753.505 141.631 760.635 Q141.631 767.741 143.436 771.306 Q145.265 774.848 148.876 774.848 Q152.511 774.848 154.316 771.306 Q156.145 767.741 156.145 760.635 Q156.145 753.505 154.316 749.964 Q152.511 746.399 148.876 746.399 M148.876 742.695 Q154.686 742.695 157.742 747.302 Q160.821 751.885 160.821 760.635 Q160.821 769.362 157.742 773.968 Q154.686 778.551 148.876 778.551 Q143.066 778.551 139.987 773.968 Q136.932 769.362 136.932 760.635 Q136.932 751.885 139.987 747.302 Q143.066 742.695 148.876 742.695 Z" fill="#000000" fill-rule="evenodd" fill-opacity="1" /><path clip-path="url(#clip310)" d="M169.038 772.001 L173.922 772.001 L173.922 777.88 L169.038 777.88 L169.038 772.001 Z" fill="#000000" fill-rule="evenodd" fill-opacity="1" /><path clip-path="url(#clip310)" d="M184.154 743.32 L202.51 743.32 L202.51 747.255 L188.436 747.255 L188.436 755.727 Q189.455 755.38 190.473 755.218 Q191.492 755.033 192.51 755.033 Q198.297 755.033 201.677 758.204 Q205.057 761.376 205.057 766.792 Q205.057 772.371 201.584 775.473 Q198.112 778.551 191.793 778.551 Q189.617 778.551 187.348 778.181 Q185.103 777.811 182.696 777.07 L182.696 772.371 Q184.779 773.505 187.001 774.061 Q189.223 774.616 191.7 774.616 Q195.705 774.616 198.043 772.51 Q200.381 770.403 200.381 766.792 Q200.381 763.181 198.043 761.075 Q195.705 758.968 191.7 758.968 Q189.825 758.968 187.95 759.385 Q186.098 759.802 184.154 760.681 L184.154 743.32 Z" fill="#000000" fill-rule="evenodd" fill-opacity="1" /><path clip-path="url(#clip310)" d="M138.691 483.447 L146.33 483.447 L146.33 457.081 L138.02 458.748 L138.02 454.488 L146.284 452.822 L150.96 452.822 L150.96 483.447 L158.598 483.447 L158.598 487.382 L138.691 487.382 L138.691 483.447 Z" fill="#000000" fill-rule="evenodd" fill-opacity="1" /><path clip-path="url(#clip310)" d="M168.043 481.502 L172.927 481.502 L172.927 487.382 L168.043 487.382 L168.043 481.502 Z" fill="#000000" fill-rule="evenodd" fill-opacity="1" /><path clip-path="url(#clip310)" d="M193.112 455.901 Q189.501 455.901 187.672 459.465 Q185.867 463.007 185.867 470.137 Q185.867 477.243 187.672 480.808 Q189.501 484.349 193.112 484.349 Q196.746 484.349 198.552 480.808 Q200.381 477.243 200.381 470.137 Q200.381 463.007 198.552 459.465 Q196.746 455.901 193.112 455.901 M193.112 452.197 Q198.922 452.197 201.978 456.803 Q205.057 461.387 205.057 470.137 Q205.057 478.863 201.978 483.47 Q198.922 488.053 193.112 488.053 Q187.302 488.053 184.223 483.47 Q181.168 478.863 181.168 470.137 Q181.168 461.387 184.223 456.803 Q187.302 452.197 193.112 452.197 Z" fill="#000000" fill-rule="evenodd" fill-opacity="1" /><path clip-path="url(#clip310)" d="M139.687 192.948 L147.325 192.948 L147.325 166.583 L139.015 168.249 L139.015 163.99 L147.279 162.324 L151.955 162.324 L151.955 192.948 L159.594 192.948 L159.594 196.884 L139.687 196.884 L139.687 192.948 Z" fill="#000000" fill-rule="evenodd" fill-opacity="1" /><path clip-path="url(#clip310)" d="M169.038 191.004 L173.922 191.004 L173.922 196.884 L169.038 196.884 L169.038 191.004 Z" fill="#000000" fill-rule="evenodd" fill-opacity="1" /><path clip-path="url(#clip310)" d="M184.154 162.324 L202.51 162.324 L202.51 166.259 L188.436 166.259 L188.436 174.731 Q189.455 174.384 190.473 174.222 Q191.492 174.036 192.51 174.036 Q198.297 174.036 201.677 177.208 Q205.057 180.379 205.057 185.796 Q205.057 191.374 201.584 194.476 Q198.112 197.555 191.793 197.555 Q189.617 197.555 187.348 197.184 Q185.103 196.814 182.696 196.073 L182.696 191.374 Q184.779 192.509 187.001 193.064 Q189.223 193.62 191.7 193.62 Q195.705 193.62 198.043 191.513 Q200.381 189.407 200.381 185.796 Q200.381 182.185 198.043 180.078 Q195.705 177.972 191.7 177.972 Q189.825 177.972 187.95 178.388 Q186.098 178.805 184.154 179.685 L184.154 162.324 Z" fill="#000000" fill-rule="evenodd" fill-opacity="1" /><path clip-path="url(#clip310)" d="M71.6434 692.903 L52.3553 692.903 L52.3553 687.047 L101.881 687.047 L101.881 692.903 L96.5333 692.903 Q99.7162 694.75 101.276 697.582 Q102.804 700.383 102.804 704.33 Q102.804 710.791 97.6473 714.865 Q92.4911 718.907 84.0884 718.907 Q75.6856 718.907 70.5294 714.865 Q65.3732 710.791 65.3732 704.33 Q65.3732 700.383 66.9328 697.582 Q68.4606 694.75 71.6434 692.903 M84.0884 712.86 Q90.5496 712.86 94.2417 710.218 Q97.902 707.545 97.902 702.898 Q97.902 698.251 94.2417 695.577 Q90.5496 692.903 84.0884 692.903 Q77.6272 692.903 73.9669 695.577 Q70.2748 698.251 70.2748 702.898 Q70.2748 707.545 73.9669 710.218 Q77.6272 712.86 84.0884 712.86 Z" fill="#000000" fill-rule="evenodd" fill-opacity="1" /><path clip-path="url(#clip310)" d="M82.5924 644.492 L85.457 644.492 L85.457 671.419 Q91.5044 671.037 94.6873 667.791 Q97.8383 664.512 97.8383 658.688 Q97.8383 655.314 97.0108 652.163 Q96.1832 648.98 94.5281 645.861 L100.066 645.861 Q101.403 649.012 102.103 652.322 Q102.804 655.632 102.804 659.038 Q102.804 667.568 97.8383 672.565 Q92.873 677.53 84.4067 677.53 Q75.6538 677.53 70.5294 672.82 Q65.3732 668.077 65.3732 660.056 Q65.3732 652.863 70.0202 648.694 Q74.6353 644.492 82.5924 644.492 M80.8737 650.349 Q76.0676 650.412 73.203 653.054 Q70.3384 655.664 70.3384 659.993 Q70.3384 664.894 73.1075 667.854 Q75.8766 670.783 80.9055 671.228 L80.8737 650.349 Z" fill="#000000" fill-rule="evenodd" fill-opacity="1" /><path clip-path="url(#clip310)" d="M83.9611 618.679 Q83.9611 625.777 85.5843 628.514 Q87.2076 631.252 91.1225 631.252 Q94.2417 631.252 96.0877 629.215 Q97.902 627.146 97.902 623.613 Q97.902 618.743 94.4645 615.815 Q90.9952 612.855 85.266 612.855 L83.9611 612.855 L83.9611 618.679 M81.5421 606.998 L101.881 606.998 L101.881 612.855 L96.4697 612.855 Q99.7162 614.86 101.276 617.852 Q102.804 620.844 102.804 625.172 Q102.804 630.647 99.748 633.893 Q96.6606 637.108 91.5044 637.108 Q85.4888 637.108 82.4333 633.098 Q79.3777 629.055 79.3777 621.066 L79.3777 612.855 L78.8048 612.855 Q74.7626 612.855 72.5664 615.528 Q70.3384 618.17 70.3384 622.976 Q70.3384 626.032 71.0705 628.928 Q71.8026 631.825 73.2667 634.498 L67.8558 634.498 Q66.6145 631.283 66.0098 628.26 Q65.3732 625.236 65.3732 622.371 Q65.3732 614.637 69.3836 610.818 Q73.394 606.998 81.5421 606.998 Z" fill="#000000" fill-rule="evenodd" fill-opacity="1" /><path clip-path="url(#clip310)" d="M56.1111 589.142 L66.2326 589.142 L66.2326 577.079 L70.784 577.079 L70.784 589.142 L90.1358 589.142 Q94.4963 589.142 95.7376 587.965 Q96.9789 586.755 96.9789 583.095 L96.9789 577.079 L101.881 577.079 L101.881 583.095 Q101.881 589.875 99.3661 592.453 Q96.8198 595.031 90.1358 595.031 L70.784 595.031 L70.784 599.328 L66.2326 599.328 L66.2326 595.031 L56.1111 595.031 L56.1111 589.142 Z" fill="#000000" fill-rule="evenodd" fill-opacity="1" /><path clip-path="url(#clip310)" d="M80.3644 539.745 L101.881 539.745 L101.881 545.601 L80.5554 545.601 Q75.4947 545.601 72.9802 547.574 Q70.4658 549.548 70.4658 553.495 Q70.4658 558.237 73.4895 560.974 Q76.5132 563.711 81.7331 563.711 L101.881 563.711 L101.881 569.6 L52.3553 569.6 L52.3553 563.711 L71.7707 563.711 Q68.556 561.611 66.9646 558.778 Q65.3732 555.913 65.3732 552.19 Q65.3732 546.047 69.1926 542.896 Q72.9802 539.745 80.3644 539.745 Z" fill="#000000" fill-rule="evenodd" fill-opacity="1" /><path clip-path="url(#clip310)" d="M612.042 18.8205 L612.042 65.8515 L621.926 65.8515 Q634.443 65.8515 640.236 60.1802 Q646.069 54.509 646.069 42.2752 Q646.069 30.1225 640.236 24.4918 Q634.443 18.8205 621.926 18.8205 L612.042 18.8205 M603.859 12.096 L620.67 12.096 Q638.251 12.096 646.474 19.4281 Q654.698 26.7198 654.698 42.2752 Q654.698 57.9117 646.434 65.2439 Q638.17 72.576 620.67 72.576 L603.859 72.576 L603.859 12.096 Z" fill="#000000" fill-rule="evenodd" fill-opacity="1" /><path clip-path="url(#clip310)" d="M659.356 12.096 L710.519 12.096 L710.519 18.9825 L689.049 18.9825 L689.049 72.576 L680.826 72.576 L680.826 18.9825 L659.356 18.9825 L659.356 12.096 Z" fill="#000000" fill-rule="evenodd" fill-opacity="1" /><path clip-path="url(#clip310)" d="M718.418 12.096 L730.612 12.096 L746.045 53.2532 L761.56 12.096 L773.754 12.096 L773.754 72.576 L765.773 72.576 L765.773 19.4686 L750.177 60.9499 L741.954 60.9499 L726.358 19.4686 L726.358 72.576 L718.418 72.576 L718.418 12.096 Z" fill="#000000" fill-rule="evenodd" fill-opacity="1" /><polyline clip-path="url(#clip312)" style="stroke:#000000; stroke-linecap:butt; stroke-linejoin:round; stroke-width:4; stroke-opacity:1; fill:none" points="
  224.857,1093.28 230.898,1087.23 286.757,1031.38 320.326,997.807 348.708,969.425 379.539,938.594 407.962,910.17 438.435,879.697 473.741,844.392 505.116,813.016 
  532.63,785.502 562.627,755.505 592.803,725.33 626.165,691.967 657.909,660.223 690.916,627.217 718.7,599.432 752.621,565.511 783.696,534.437 812.395,505.737 
  841.467,476.666 874.048,444.084 903.572,414.561 937.374,380.758 968.673,349.46 999.529,318.603 1029.49,288.644 1060.2,257.932 1093.85,224.284 1142.73,175.404 
  1152.76,165.376 
  "/>
<polyline clip-path="url(#clip312)" style="stroke:#808080; stroke-linecap:butt; stroke-linejoin:round; stroke-width:4; stroke-opacity:1; fill:none" stroke-dasharray="2, 4" points="
  -703.043,-2885.31 2080.66,-2885.31 
  "/>
<circle clip-path="url(#clip312)" cx="1068.7" cy="238.39" r="14" fill="#e26f46" fill-rule="evenodd" fill-opacity="1" stroke="none"/>
<circle clip-path="url(#clip312)" cx="854.474" cy="233.76" r="14" fill="#e26f46" fill-rule="evenodd" fill-opacity="1" stroke="none"/>
<circle clip-path="url(#clip312)" cx="856.596" cy="207.554" r="14" fill="#e26f46" fill-rule="evenodd" fill-opacity="1" stroke="none"/>
<path clip-path="url(#clip310)" d="
M971.319 1061.57 L1121.83 1061.57 L1121.83 957.888 L971.319 957.888  Z
  " fill="#ffffff" fill-rule="evenodd" fill-opacity="1"/>
<polyline clip-path="url(#clip310)" style="stroke:#000000; stroke-linecap:butt; stroke-linejoin:round; stroke-width:4; stroke-opacity:1; fill:none" points="
  971.319,1061.57 1121.83,1061.57 1121.83,957.888 971.319,957.888 971.319,1061.57 
  "/>
<circle clip-path="url(#clip310)" cx="1012.56" cy="1009.73" r="23" fill="#e26f46" fill-rule="evenodd" fill-opacity="1" stroke="none"/>
<path clip-path="url(#clip310)" d="M1053.8 992.448 L1058.47 992.448 L1058.47 1006.61 L1075.47 1006.61 L1075.47 992.448 L1080.14 992.448 L1080.14 1027.01 L1075.47 1027.01 L1075.47 1010.55 L1058.47 1010.55 L1058.47 1027.01 L1053.8 1027.01 L1053.8 992.448 Z" fill="#000000" fill-rule="evenodd" fill-opacity="1" /><path clip-path="url(#clip310)" d="M1088.41 1024.46 L1093.13 1024.46 L1093.13 1010.32 L1087.97 1011.27 L1087.97 1008.58 L1093.29 1007.68 L1096.46 1007.68 L1096.46 1024.46 L1101.21 1024.46 L1101.21 1027.01 L1088.41 1027.01 L1088.41 1024.46 Z" fill="#000000" fill-rule="evenodd" fill-opacity="1" /></svg>
