<?xml version="1.0" encoding="utf-8"?>
<svg xmlns="http://www.w3.org/2000/svg" xmlns:xlink="http://www.w3.org/1999/xlink" width="300" height="330" viewBox="0 0 1200 1320">
<defs>
  <clipPath id="clip310">
    <rect x="0" y="0" width="1200" height="1320"/>
  </clipPath>
</defs>
<path clip-path="url(#clip310)" d="
M0 1320 L1200 1320 L1200 0 L0 0  Z
  " fill="#ffffff" fill-rule="evenodd" fill-opacity="1"/>
<defs>
  <clipPath id="clip311">
    <rect x="264" y="132" width="925" height="925"/>
  </clipPath>
</defs>
<path clip-path="url(#clip310)" d="
M224.541 1093.43 L1152.76 1093.43 L1152.76 165.218 L224.541 165.218  Z
  " fill="#ffffff" fill-rule="evenodd" fill-opacity="1"/>
<defs>
  <clipPath id="clip312">
    <rect x="224" y="165" width="929" height="929"/>
  </clipPath>
</defs>
<polyline clip-path="url(#clip312)" style="stroke:#000000; stroke-linecap:butt; stroke-linejoin:round; stroke-width:2; stroke-opacity:0.1; fill:none" points="
  224.541,1093.43 224.541,165.218 
  "/>
<polyline clip-path="url(#clip312)" style="stroke:#000000; stroke-linecap:butt; stroke-linejoin:round; stroke-width:2; stroke-opacity:0.1; fill:none" points="
  533.946,1093.43 533.946,165.218 
  "/>
<polyline clip-path="url(#clip312)" style="stroke:#000000; stroke-linecap:butt; stroke-linejoin:round; stroke-width:2; stroke-opacity:0.1; fill:none" points="
  843.351,1093.43 843.351,165.218 
  "/>
<polyline clip-path="url(#clip312)" style="stroke:#000000; stroke-linecap:butt; stroke-linejoin:round; stroke-width:2; stroke-opacity:0.1; fill:none" points="
  1152.76,1093.43 1152.76,165.218 
  "/>
<polyline clip-path="url(#clip310)" style="stroke:#000000; stroke-linecap:butt; stroke-linejoin:round; stroke-width:4; stroke-opacity:1; fill:none" points="
  224.541,1093.43 1152.76,1093.43 
  "/>
<polyline clip-path="url(#clip310)" style="stroke:#000000; stroke-linecap:butt; stroke-linejoin:round; stroke-width:4; stroke-opacity:1; fill:none" points="
  224.541,1093.43 224.541,1074.99 
  "/>
<polyline clip-path="url(#clip310)" style="stroke:#000000; stroke-linecap:butt; stroke-linejoin:round; stroke-width:4; stroke-opacity:1; fill:none" points="
  533.946,1093.43 533.946,1074.99 
  "/>
<polyline clip-path="url(#clip310)" style="stroke:#000000; stroke-linecap:butt; stroke-linejoin:round; stroke-width:4; stroke-opacity:1; fill:none" points="
  843.351,1093.43 843.351,1074.99 
  "/>
<polyline clip-path="url(#clip310)" style="stroke:#000000; stroke-linecap:butt; stroke-linejoin:round; stroke-width:4; stroke-opacity:1; fill:none" points="
  1152.76,1093.43 1152.76,1074.99 
  "/>
<path clip-path="url(#clip310)" d="M202.423 1115.71 Q198.812 1115.71 196.983 1119.28 Q195.178 1122.82 195.178 1129.95 Q195.178 1137.05 196.983 1140.62 Q198.812 1144.16 202.423 1144.16 Q206.057 1144.16 207.863 1140.62 Q209.691 1137.05 209.691 1129.95 Q209.691 1122.82 207.863 1119.28 Q206.057 1115.71 202.423 1115.71 M202.423 1112.01 Q208.233 1112.01 211.289 1116.61 Q214.367 1121.2 214.367 1129.95 Q214.367 1138.68 211.289 1143.28 Q208.233 1147.86 202.423 1147.86 Q196.613 1147.86 193.534 1143.28 Q190.479 1138.68 190.479 1129.95 Q190.479 1121.2 193.534 1116.61 Q196.613 1112.01 202.423 1112.01 Z" fill="#000000" fill-rule="evenodd" fill-opacity="1" /><path clip-path="url(#clip310)" d="M222.585 1141.31 L227.469 1141.31 L227.469 1147.19 L222.585 1147.19 L222.585 1141.31 Z" fill="#000000" fill-rule="evenodd" fill-opacity="1" /><path clip-path="url(#clip310)" d="M237.701 1112.63 L256.057 1112.63 L256.057 1116.57 L241.983 1116.57 L241.983 1125.04 Q243.001 1124.69 244.02 1124.53 Q245.038 1124.35 246.057 1124.35 Q251.844 1124.35 255.224 1127.52 Q258.603 1130.69 258.603 1136.11 Q258.603 1141.68 255.131 1144.79 Q251.659 1147.86 245.339 1147.86 Q243.163 1147.86 240.895 1147.49 Q238.65 1147.12 236.242 1146.38 L236.242 1141.68 Q238.326 1142.82 240.548 1143.37 Q242.77 1143.93 245.247 1143.93 Q249.251 1143.93 251.589 1141.82 Q253.927 1139.72 253.927 1136.11 Q253.927 1132.49 251.589 1130.39 Q249.251 1128.28 245.247 1128.28 Q243.372 1128.28 241.497 1128.7 Q239.645 1129.11 237.701 1129.99 L237.701 1112.63 Z" fill="#000000" fill-rule="evenodd" fill-opacity="1" /><path clip-path="url(#clip310)" d="M501.099 1143.26 L508.738 1143.26 L508.738 1116.89 L500.428 1118.56 L500.428 1114.3 L508.691 1112.63 L513.367 1112.63 L513.367 1143.26 L521.006 1143.26 L521.006 1147.19 L501.099 1147.19 L501.099 1143.26 Z" fill="#000000" fill-rule="evenodd" fill-opacity="1" /><path clip-path="url(#clip310)" d="M530.451 1141.31 L535.335 1141.31 L535.335 1147.19 L530.451 1147.19 L530.451 1141.31 Z" fill="#000000" fill-rule="evenodd" fill-opacity="1" /><path clip-path="url(#clip310)" d="M555.52 1115.71 Q551.909 1115.71 550.08 1119.28 Q548.275 1122.82 548.275 1129.95 Q548.275 1137.05 550.08 1140.62 Q551.909 1144.16 555.52 1144.16 Q559.154 1144.16 560.96 1140.62 Q562.788 1137.05 562.788 1129.95 Q562.788 1122.82 560.96 1119.28 Q559.154 1115.71 555.52 1115.71 M555.52 1112.01 Q561.33 1112.01 564.386 1116.61 Q567.464 1121.2 567.464 1129.95 Q567.464 1138.68 564.386 1143.28 Q561.33 1147.86 555.52 1147.86 Q549.71 1147.86 546.631 1143.28 Q543.575 1138.68 543.575 1129.95 Q543.575 1121.2 546.631 1116.61 Q549.71 1112.01 555.52 1112.01 Z" fill="#000000" fill-rule="evenodd" fill-opacity="1" /><path clip-path="url(#clip310)" d="M811.002 1143.26 L818.64 1143.26 L818.64 1116.89 L810.33 1118.56 L810.33 1114.3 L818.594 1112.63 L823.27 1112.63 L823.27 1143.26 L830.909 1143.26 L830.909 1147.19 L811.002 1147.19 L811.002 1143.26 Z" fill="#000000" fill-rule="evenodd" fill-opacity="1" /><path clip-path="url(#clip310)" d="M840.353 1141.31 L845.237 1141.31 L845.237 1147.19 L840.353 1147.19 L840.353 1141.31 Z" fill="#000000" fill-rule="evenodd" fill-opacity="1" /><path clip-path="url(#clip310)" d="M855.469 1112.63 L873.825 1112.63 L873.825 1116.57 L859.751 1116.57 L859.751 1125.04 Q860.77 1124.69 861.788 1124.53 Q862.807 1124.35 863.825 1124.35 Q869.612 1124.35 872.992 1127.52 Q876.372 1130.69 876.372 1136.11 Q876.372 1141.68 872.899 1144.79 Q869.427 1147.86 863.108 1147.86 Q860.932 1147.86 858.663 1147.49 Q856.418 1147.12 854.011 1146.38 L854.011 1141.68 Q856.094 1142.82 858.316 1143.37 Q860.538 1143.93 863.015 1143.93 Q867.02 1143.93 869.358 1141.82 Q871.696 1139.72 871.696 1136.11 Q871.696 1132.49 869.358 1130.39 Q867.02 1128.28 863.015 1128.28 Q861.14 1128.28 859.265 1128.7 Q857.413 1129.11 855.469 1129.99 L855.469 1112.63 Z" fill="#000000" fill-rule="evenodd" fill-opacity="1" /><path clip-path="url(#clip310)" d="M1123.99 1143.26 L1140.31 1143.26 L1140.31 1147.19 L1118.37 1147.19 L1118.37 1143.26 Q1121.03 1140.5 1125.61 1135.87 Q1130.22 1131.22 1131.4 1129.88 Q1133.65 1127.36 1134.53 1125.62 Q1135.43 1123.86 1135.43 1122.17 Q1135.43 1119.42 1133.49 1117.68 Q1131.56 1115.94 1128.46 1115.94 Q1126.26 1115.94 1123.81 1116.71 Q1121.38 1117.47 1118.6 1119.02 L1118.6 1114.3 Q1121.43 1113.17 1123.88 1112.59 Q1126.33 1112.01 1128.37 1112.01 Q1133.74 1112.01 1136.93 1114.69 Q1140.13 1117.38 1140.13 1121.87 Q1140.13 1124 1139.32 1125.92 Q1138.53 1127.82 1136.42 1130.41 Q1135.85 1131.08 1132.74 1134.3 Q1129.64 1137.49 1123.99 1143.26 Z" fill="#000000" fill-rule="evenodd" fill-opacity="1" /><path clip-path="url(#clip310)" d="M1150.13 1141.31 L1155.01 1141.31 L1155.01 1147.19 L1150.13 1147.19 L1150.13 1141.31 Z" fill="#000000" fill-rule="evenodd" fill-opacity="1" /><path clip-path="url(#clip310)" d="M1175.2 1115.71 Q1171.59 1115.71 1169.76 1119.28 Q1167.95 1122.82 1167.95 1129.95 Q1167.95 1137.05 1169.76 1140.62 Q1171.59 1144.16 1175.2 1144.16 Q1178.83 1144.16 1180.64 1140.62 Q1182.47 1137.05 1182.47 1129.95 Q1182.47 1122.82 1180.64 1119.28 Q1178.83 1115.71 1175.2 1115.71 M1175.2 1112.01 Q1181.01 1112.01 1184.06 1116.61 Q1187.14 1121.2 1187.14 1129.95 Q1187.14 1138.68 1184.06 1143.28 Q1181.01 1147.86 1175.2 1147.86 Q1169.39 1147.86 1166.31 1143.28 Q1163.25 1138.68 1163.25 1129.95 Q1163.25 1121.2 1166.31 1116.61 Q1169.39 1112.01 1175.2 1112.01 Z" fill="#000000" fill-rule="evenodd" fill-opacity="1" /><path clip-path="url(#clip310)" d="M643.611 1204.31 Q643.611 1197.84 640.937 1194.18 Q638.296 1190.49 633.649 1190.49 Q629.002 1190.49 626.328 1194.18 Q623.686 1197.84 623.686 1204.31 Q623.686 1210.77 626.328 1214.46 Q629.002 1218.12 633.649 1218.12 Q638.296 1218.12 640.937 1214.46 Q643.611 1210.77 643.611 1204.31 M623.686 1191.86 Q625.532 1188.68 628.333 1187.15 Q631.166 1185.59 635.081 1185.59 Q641.574 1185.59 645.616 1190.75 Q649.69 1195.9 649.69 1204.31 Q649.69 1212.71 645.616 1217.86 Q641.574 1223.02 635.081 1223.02 Q631.166 1223.02 628.333 1221.49 Q625.532 1219.93 623.686 1216.75 L623.686 1222.1 L617.798 1222.1 L617.798 1172.57 L623.686 1172.57 L623.686 1191.86 Z" fill="#000000" fill-rule="evenodd" fill-opacity="1" /><path clip-path="url(#clip310)" d="M659.398 1186.45 L665.254 1186.45 L665.254 1222.1 L659.398 1222.1 L659.398 1186.45 M659.398 1172.57 L665.254 1172.57 L665.254 1179.99 L659.398 1179.99 L659.398 1172.57 Z" fill="#000000" fill-rule="evenodd" fill-opacity="1" /><path clip-path="url(#clip310)" d="M698.165 1191.92 Q697.178 1191.35 696.001 1191.1 Q694.855 1190.81 693.454 1190.81 Q688.489 1190.81 685.816 1194.06 Q683.174 1197.27 683.174 1203.32 L683.174 1222.1 L677.286 1222.1 L677.286 1186.45 L683.174 1186.45 L683.174 1191.99 Q685.02 1188.74 687.98 1187.18 Q690.94 1185.59 695.173 1185.59 Q695.778 1185.59 696.51 1185.69 Q697.242 1185.75 698.133 1185.91 L698.165 1191.92 Z" fill="#000000" fill-rule="evenodd" fill-opacity="1" /><path clip-path="url(#clip310)" d="M710.101 1176.33 L710.101 1186.45 L722.164 1186.45 L722.164 1191 L710.101 1191 L710.101 1210.35 Q710.101 1214.71 711.278 1215.95 Q712.488 1217.2 716.148 1217.2 L722.164 1217.2 L722.164 1222.1 L716.148 1222.1 Q709.369 1222.1 706.791 1219.58 Q704.213 1217.04 704.213 1210.35 L704.213 1191 L699.916 1191 L699.916 1186.45 L704.213 1186.45 L704.213 1176.33 L710.101 1176.33 Z" fill="#000000" fill-rule="evenodd" fill-opacity="1" /><path clip-path="url(#clip310)" d="M759.499 1200.58 L759.499 1222.1 L753.642 1222.1 L753.642 1200.77 Q753.642 1195.71 751.669 1193.2 Q749.696 1190.68 745.749 1190.68 Q741.006 1190.68 738.269 1193.71 Q735.532 1196.73 735.532 1201.95 L735.532 1222.1 L729.644 1222.1 L729.644 1172.57 L735.532 1172.57 L735.532 1191.99 Q737.632 1188.77 740.465 1187.18 Q743.33 1185.59 747.054 1185.59 Q753.197 1185.59 756.348 1189.41 Q759.499 1193.2 759.499 1200.58 Z" fill="#000000" fill-rule="evenodd" fill-opacity="1" /><polyline clip-path="url(#clip312)" style="stroke:#000000; stroke-linecap:butt; stroke-linejoin:round; stroke-width:2; stroke-opacity:0.1; fill:none" points="
  224.541,1093.43 1152.76,1093.43 
  "/>
<polyline clip-path="url(#clip312)" style="stroke:#000000; stroke-linecap:butt; stroke-linejoin:round; stroke-width:2; stroke-opacity:0.1; fill:none" points="
  224.541,784.028 1152.76,784.028 
  "/>
<polyline clip-path="url(#clip312)" style="stroke:#000000; stroke-linecap:butt; stroke-linejoin:round; stroke-width:2; stroke-opacity:0.1; fill:none" points="
  224.541,474.623 1152.76,474.623 
  "/>
<polyline clip-path="url(#clip312)" style="stroke:#000000; stroke-linecap:butt; stroke-linejoin:round; stroke-width:2; stroke-opacity:0.1; fill:none" points="
  224.541,165.218 1152.76,165.218 
  "/>
<polyline clip-path="url(#clip310)" style="stroke:#000000; stroke-linecap:butt; stroke-linejoin:round; stroke-width:4; stroke-opacity:1; fill:none" points="
  224.541,1093.43 224.541,165.218 
  "/>
<polyline clip-path="url(#clip310)" style="stroke:#000000; stroke-linecap:butt; stroke-linejoin:round; stroke-width:4; stroke-opacity:1; fill:none" points="
  224.541,1093.43 243.439,1093.43 
  "/>
<polyline clip-path="url(#clip310)" style="stroke:#000000; stroke-linecap:butt; stroke-linejoin:round; stroke-width:4; stroke-opacity:1; fill:none" points="
  224.541,784.028 243.439,784.028 
  "/>
<polyline clip-path="url(#clip310)" style="stroke:#000000; stroke-linecap:butt; stroke-linejoin:round; stroke-width:4; stroke-opacity:1; fill:none" points="
  224.541,474.623 243.439,474.623 
  "/>
<polyline clip-path="url(#clip310)" style="stroke:#000000; stroke-linecap:butt; stroke-linejoin:round; stroke-width:4; stroke-opacity:1; fill:none" points="
  224.541,165.218 243.439,165.218 
  "/>
<path clip-path="url(#clip310)" d="M148.561 1079.23 Q144.95 1079.23 143.121 1082.8 Q141.315 1086.34 141.315 1093.47 Q141.315 1100.57 143.121 1104.14 Q144.95 1107.68 148.561 1107.68 Q152.195 1107.68 154 1104.14 Q155.829 1100.57 155.829 1093.47 Q155.829 1086.34 154 1082.8 Q152.195 1079.23 148.561 1079.23 M148.561 1075.53 Q154.371 1075.53 157.426 1080.13 Q160.505 1084.72 160.505 1093.47 Q160.505 1102.2 157.426 1106.8 Q154.371 1111.38 148.561 1111.38 Q142.75 1111.38 139.672 1106.8 Q136.616 1102.2 136.616 1093.47 Q136.616 1084.72 139.672 1080.13 Q142.75 1075.53 148.561 1075.53 Z" fill="#000000" fill-rule="evenodd" fill-opacity="1" /><path clip-path="url(#clip310)" d="M168.723 1104.83 L173.607 1104.83 L173.607 1110.71 L168.723 1110.71 L168.723 1104.83 Z" fill="#000000" fill-rule="evenodd" fill-opacity="1" /><path clip-path="url(#clip310)" d="M183.838 1076.15 L202.195 1076.15 L202.195 1080.09 L188.121 1080.09 L188.121 1088.56 Q189.139 1088.21 190.158 1088.05 Q191.176 1087.87 192.195 1087.87 Q197.982 1087.87 201.361 1091.04 Q204.741 1094.21 204.741 1099.63 Q204.741 1105.2 201.269 1108.31 Q197.796 1111.38 191.477 1111.38 Q189.301 1111.38 187.033 1111.01 Q184.787 1110.64 182.38 1109.9 L182.38 1105.2 Q184.463 1106.34 186.685 1106.89 Q188.908 1107.45 191.384 1107.45 Q195.389 1107.45 197.727 1105.34 Q200.065 1103.24 200.065 1099.63 Q200.065 1096.01 197.727 1093.91 Q195.389 1091.8 191.384 1091.8 Q189.509 1091.8 187.634 1092.22 Q185.783 1092.63 183.838 1093.51 L183.838 1076.15 Z" fill="#000000" fill-rule="evenodd" fill-opacity="1" /><path clip-path="url(#clip310)" d="M138.375 797.373 L146.014 797.373 L146.014 771.008 L137.704 772.674 L137.704 768.415 L145.968 766.748 L150.644 766.748 L150.644 797.373 L158.283 797.373 L158.283 801.308 L138.375 801.308 L138.375 797.373 Z" fill="#000000" fill-rule="evenodd" fill-opacity="1" /><path clip-path="url(#clip310)" d="M167.727 795.429 L172.611 795.429 L172.611 801.308 L167.727 801.308 L167.727 795.429 Z" fill="#000000" fill-rule="evenodd" fill-opacity="1" /><path clip-path="url(#clip310)" d="M192.796 769.827 Q189.185 769.827 187.357 773.392 Q185.551 776.934 185.551 784.063 Q185.551 791.17 187.357 794.734 Q189.185 798.276 192.796 798.276 Q196.431 798.276 198.236 794.734 Q200.065 791.17 200.065 784.063 Q200.065 776.934 198.236 773.392 Q196.431 769.827 192.796 769.827 M192.796 766.123 Q198.607 766.123 201.662 770.73 Q204.741 775.313 204.741 784.063 Q204.741 792.79 201.662 797.396 Q198.607 801.98 192.796 801.98 Q186.986 801.98 183.908 797.396 Q180.852 792.79 180.852 784.063 Q180.852 775.313 183.908 770.73 Q186.986 766.123 192.796 766.123 Z" fill="#000000" fill-rule="evenodd" fill-opacity="1" /><path clip-path="url(#clip310)" d="M139.371 487.968 L147.01 487.968 L147.01 461.603 L138.7 463.269 L138.7 459.01 L146.963 457.343 L151.639 457.343 L151.639 487.968 L159.278 487.968 L159.278 491.903 L139.371 491.903 L139.371 487.968 Z" fill="#000000" fill-rule="evenodd" fill-opacity="1" /><path clip-path="url(#clip310)" d="M168.723 486.024 L173.607 486.024 L173.607 491.903 L168.723 491.903 L168.723 486.024 Z" fill="#000000" fill-rule="evenodd" fill-opacity="1" /><path clip-path="url(#clip310)" d="M183.838 457.343 L202.195 457.343 L202.195 461.279 L188.121 461.279 L188.121 469.751 Q189.139 469.404 190.158 469.242 Q191.176 469.056 192.195 469.056 Q197.982 469.056 201.361 472.228 Q204.741 475.399 204.741 480.816 Q204.741 486.394 201.269 489.496 Q197.796 492.575 191.477 492.575 Q189.301 492.575 187.033 492.204 Q184.787 491.834 182.38 491.093 L182.38 486.394 Q184.463 487.529 186.685 488.084 Q188.908 488.64 191.384 488.64 Q195.389 488.64 197.727 486.533 Q200.065 484.427 200.065 480.816 Q200.065 477.204 197.727 475.098 Q195.389 472.992 191.384 472.992 Q189.509 472.992 187.634 473.408 Q185.783 473.825 183.838 474.704 L183.838 457.343 Z" fill="#000000" fill-rule="evenodd" fill-opacity="1" /><path clip-path="url(#clip310)" d="M141.593 178.563 L157.912 178.563 L157.912 182.498 L135.968 182.498 L135.968 178.563 Q138.63 175.809 143.213 171.179 Q147.82 166.526 149 165.184 Q151.246 162.661 152.125 160.925 Q153.028 159.165 153.028 157.475 Q153.028 154.721 151.084 152.985 Q149.162 151.249 146.061 151.249 Q143.862 151.249 141.408 152.013 Q138.977 152.776 136.2 154.327 L136.2 149.605 Q139.024 148.471 141.477 147.892 Q143.931 147.313 145.968 147.313 Q151.338 147.313 154.533 149.999 Q157.727 152.684 157.727 157.175 Q157.727 159.304 156.917 161.225 Q156.13 163.124 154.024 165.716 Q153.445 166.387 150.343 169.605 Q147.241 172.799 141.593 178.563 Z" fill="#000000" fill-rule="evenodd" fill-opacity="1" /><path clip-path="url(#clip310)" d="M167.727 176.619 L172.611 176.619 L172.611 182.498 L167.727 182.498 L167.727 176.619 Z" fill="#000000" fill-rule="evenodd" fill-opacity="1" /><path clip-path="url(#clip310)" d="M192.796 151.017 Q189.185 151.017 187.357 154.582 Q185.551 158.124 185.551 165.253 Q185.551 172.36 187.357 175.924 Q189.185 179.466 192.796 179.466 Q196.431 179.466 198.236 175.924 Q200.065 172.36 200.065 165.253 Q200.065 158.124 198.236 154.582 Q196.431 151.017 192.796 151.017 M192.796 147.313 Q198.607 147.313 201.662 151.92 Q204.741 156.503 204.741 165.253 Q204.741 173.98 201.662 178.586 Q198.607 183.17 192.796 183.17 Q186.986 183.17 183.908 178.586 Q180.852 173.98 180.852 165.253 Q180.852 156.503 183.908 151.92 Q186.986 147.313 192.796 147.313 Z" fill="#000000" fill-rule="evenodd" fill-opacity="1" /><path clip-path="url(#clip310)" d="M71.675 692.903 L52.3869 692.903 L52.3869 687.047 L101.912 687.047 L101.912 692.903 L96.5649 692.903 Q99.7477 694.75 101.307 697.582 Q102.835 700.383 102.835 704.33 Q102.835 710.791 97.6789 714.865 Q92.5227 718.907 84.1199 718.907 Q75.7172 718.907 70.561 714.865 Q65.4048 710.791 65.4048 704.33 Q65.4048 700.383 66.9644 697.582 Q68.4921 694.75 71.675 692.903 M84.1199 712.86 Q90.5811 712.86 94.2732 710.218 Q97.9335 707.545 97.9335 702.898 Q97.9335 698.251 94.2732 695.577 Q90.5811 692.903 84.1199 692.903 Q77.6587 692.903 73.9985 695.577 Q70.3064 698.251 70.3064 702.898 Q70.3064 707.545 73.9985 710.218 Q77.6587 712.86 84.1199 712.86 Z" fill="#000000" fill-rule="evenodd" fill-opacity="1" /><path clip-path="url(#clip310)" d="M82.624 644.492 L85.4886 644.492 L85.4886 671.419 Q91.536 671.037 94.7188 667.791 Q97.8699 664.512 97.8699 658.688 Q97.8699 655.314 97.0423 652.163 Q96.2148 648.98 94.5597 645.861 L100.098 645.861 Q101.435 649.012 102.135 652.322 Q102.835 655.632 102.835 659.038 Q102.835 667.568 97.8699 672.565 Q92.9046 677.53 84.4382 677.53 Q75.6854 677.53 70.561 672.82 Q65.4048 668.077 65.4048 660.056 Q65.4048 652.863 70.0517 648.694 Q74.6669 644.492 82.624 644.492 M80.9053 650.349 Q76.0991 650.412 73.2346 653.054 Q70.37 655.664 70.37 659.993 Q70.37 664.894 73.1391 667.854 Q75.9082 670.783 80.9371 671.228 L80.9053 650.349 Z" fill="#000000" fill-rule="evenodd" fill-opacity="1" /><path clip-path="url(#clip310)" d="M83.9926 618.679 Q83.9926 625.777 85.6159 628.514 Q87.2391 631.252 91.154 631.252 Q94.2732 631.252 96.1193 629.215 Q97.9335 627.146 97.9335 623.613 Q97.9335 618.743 94.496 615.815 Q91.0267 612.855 85.2976 612.855 L83.9926 612.855 L83.9926 618.679 M81.5737 606.998 L101.912 606.998 L101.912 612.855 L96.5012 612.855 Q99.7477 614.86 101.307 617.852 Q102.835 620.844 102.835 625.172 Q102.835 630.647 99.7796 633.893 Q96.6922 637.108 91.536 637.108 Q85.5204 637.108 82.4649 633.098 Q79.4093 629.055 79.4093 621.066 L79.4093 612.855 L78.8364 612.855 Q74.7942 612.855 72.598 615.528 Q70.37 618.17 70.37 622.976 Q70.37 626.032 71.1021 628.928 Q71.8341 631.825 73.2982 634.498 L67.8874 634.498 Q66.6461 631.283 66.0413 628.26 Q65.4048 625.236 65.4048 622.371 Q65.4048 614.637 69.4152 610.818 Q73.4255 606.998 81.5737 606.998 Z" fill="#000000" fill-rule="evenodd" fill-opacity="1" /><path clip-path="url(#clip310)" d="M56.1427 589.142 L66.2641 589.142 L66.2641 577.079 L70.8156 577.079 L70.8156 589.142 L90.1674 589.142 Q94.5279 589.142 95.7692 587.965 Q97.0105 586.755 97.0105 583.095 L97.0105 577.079 L101.912 577.079 L101.912 583.095 Q101.912 589.875 99.3976 592.453 Q96.8513 595.031 90.1674 595.031 L70.8156 595.031 L70.8156 599.328 L66.2641 599.328 L66.2641 595.031 L56.1427 595.031 L56.1427 589.142 Z" fill="#000000" fill-rule="evenodd" fill-opacity="1" /><path clip-path="url(#clip310)" d="M80.396 539.745 L101.912 539.745 L101.912 545.601 L80.587 545.601 Q75.5262 545.601 73.0118 547.574 Q70.4973 549.548 70.4973 553.495 Q70.4973 558.237 73.521 560.974 Q76.5447 563.711 81.7646 563.711 L101.912 563.711 L101.912 569.6 L52.3869 569.6 L52.3869 563.711 L71.8023 563.711 Q68.5876 561.611 66.9962 558.778 Q65.4048 555.913 65.4048 552.19 Q65.4048 546.047 69.2242 542.896 Q73.0118 539.745 80.396 539.745 Z" fill="#000000" fill-rule="evenodd" fill-opacity="1" /><path clip-path="url(#clip310)" d="M502.226 12.096 L514.419 12.096 L529.853 53.2532 L545.368 12.096 L557.561 12.096 L557.561 72.576 L549.581 72.576 L549.581 19.4686 L533.985 60.9499 L525.762 60.9499 L510.166 19.4686 L510.166 72.576 L502.226 72.576 L502.226 12.096 Z" fill="#000000" fill-rule="evenodd" fill-opacity="1" /><path clip-path="url(#clip310)" d="M591.062 32.4315 Q585.067 32.4315 581.583 37.1306 Q578.099 41.7891 578.099 49.9314 Q578.099 58.0738 581.542 62.7728 Q585.026 67.4314 591.062 67.4314 Q597.017 67.4314 600.501 62.7323 Q603.984 58.0333 603.984 49.9314 Q603.984 41.8701 600.501 37.1711 Q597.017 32.4315 591.062 32.4315 M591.062 26.1121 Q600.784 26.1121 606.334 32.4315 Q611.884 38.7509 611.884 49.9314 Q611.884 61.0714 606.334 67.4314 Q600.784 73.7508 591.062 73.7508 Q581.299 73.7508 575.75 67.4314 Q570.24 61.0714 570.24 49.9314 Q570.24 38.7509 575.75 32.4315 Q581.299 26.1121 591.062 26.1121 Z" fill="#000000" fill-rule="evenodd" fill-opacity="1" /><path clip-path="url(#clip310)" d="M624.563 12.096 L636.756 12.096 L652.19 53.2532 L667.705 12.096 L679.898 12.096 L679.898 72.576 L671.918 72.576 L671.918 19.4686 L656.322 60.9499 L648.099 60.9499 L632.503 19.4686 L632.503 72.576 L624.563 72.576 L624.563 12.096 Z" fill="#000000" fill-rule="evenodd" fill-opacity="1" /><path clip-path="url(#clip310)" d="M730.697 18.8205 L730.697 65.8515 L740.581 65.8515 Q753.098 65.8515 758.891 60.1802 Q764.724 54.509 764.724 42.2752 Q764.724 30.1225 758.891 24.4918 Q753.098 18.8205 740.581 18.8205 L730.697 18.8205 M722.514 12.096 L739.325 12.096 Q756.906 12.096 765.129 19.4281 Q773.353 26.7198 773.353 42.2752 Q773.353 57.9117 765.089 65.2439 Q756.825 72.576 739.325 72.576 L722.514 72.576 L722.514 12.096 Z" fill="#000000" fill-rule="evenodd" fill-opacity="1" /><path clip-path="url(#clip310)" d="M786.073 27.2059 L793.526 27.2059 L793.526 72.576 L786.073 72.576 L786.073 27.2059 M786.073 9.54393 L793.526 9.54393 L793.526 18.9825 L786.073 18.9825 L786.073 9.54393 Z" fill="#000000" fill-rule="evenodd" fill-opacity="1" /><path clip-path="url(#clip310)" d="M838.046 28.5427 L838.046 35.5912 Q834.886 33.9709 831.483 33.1607 Q828.081 32.3505 824.435 32.3505 Q818.885 32.3505 816.09 34.0519 Q813.335 35.7533 813.335 39.156 Q813.335 41.7486 815.32 43.2475 Q817.305 44.7058 823.3 46.0426 L825.853 46.6097 Q833.792 48.3111 837.114 51.4303 Q840.476 54.509 840.476 60.0587 Q840.476 66.3781 835.453 70.0644 Q830.471 73.7508 821.721 73.7508 Q818.075 73.7508 814.105 73.0216 Q810.176 72.3329 805.801 70.9151 L805.801 63.2184 Q809.932 65.3654 813.943 66.4591 Q817.953 67.5124 821.883 67.5124 Q827.149 67.5124 829.984 65.73 Q832.82 63.9071 832.82 60.6258 Q832.82 57.5877 830.754 55.9673 Q828.729 54.3469 821.802 52.8481 L819.209 52.2405 Q812.282 50.7821 809.203 47.7845 Q806.125 44.7463 806.125 39.4801 Q806.125 33.0797 810.662 29.5959 Q815.199 26.1121 823.543 26.1121 Q827.675 26.1121 831.321 26.7198 Q834.967 27.3274 838.046 28.5427 Z" fill="#000000" fill-rule="evenodd" fill-opacity="1" /><path clip-path="url(#clip310)" d="M859.718 14.324 L859.718 27.2059 L875.071 27.2059 L875.071 32.9987 L859.718 32.9987 L859.718 57.6282 Q859.718 63.1779 861.217 64.7578 Q862.756 66.3376 867.415 66.3376 L875.071 66.3376 L875.071 72.576 L867.415 72.576 Q858.786 72.576 855.505 69.3758 Q852.224 66.1351 852.224 57.6282 L852.224 32.9987 L846.755 32.9987 L846.755 27.2059 L852.224 27.2059 L852.224 14.324 L859.718 14.324 Z" fill="#000000" fill-rule="evenodd" fill-opacity="1" /><polyline clip-path="url(#clip312)" style="stroke:#000000; stroke-linecap:butt; stroke-linejoin:round; stroke-width:4; stroke-opacity:1; fill:none" points="
  224.541,1093.43 230.584,1087.39 286.462,1031.51 320.042,997.932 348.434,969.54 379.276,938.699 407.709,910.266 438.192,879.783 473.51,844.465 504.896,813.078 
  532.419,785.556 562.426,755.548 592.612,725.362 625.986,691.988 657.741,660.233 690.758,627.216 718.552,599.422 752.485,565.489 783.57,534.404 812.279,505.695 
  841.361,476.614 873.953,444.021 903.487,414.488 937.301,380.673 968.61,349.364 999.477,318.498 1029.45,288.528 1060.17,257.806 1093.83,224.146 1142.72,175.25 
  1152.76,165.218 
  "/>
<polyline clip-path="url(#clip312)" style="stroke:#808080; stroke-linecap:butt; stroke-linejoin:round; stroke-width:4; stroke-opacity:1; fill:none" stroke-dasharray="2, 4" points="
  -703.674,-2735.97 2080.97,-2735.97 
  "/>
<circle clip-path="url(#clip312)" cx="685.796" cy="630.776" r="14" fill="#e26f46" fill-rule="evenodd" fill-opacity="1" stroke="none"/>
<circle clip-path="url(#clip312)" cx="647.594" cy="664.183" r="14" fill="#e26f46" fill-rule="evenodd" fill-opacity="1" stroke="none"/>
<circle clip-path="url(#clip312)" cx="687.018" cy="622.71" r="14" fill="#e26f46" fill-rule="evenodd" fill-opacity="1" stroke="none"/>
<circle clip-path="url(#clip312)" cx="655.448" cy="648.887" r="14" fill="#e26f46" fill-rule="evenodd" fill-opacity="1" stroke="none"/>
<circle clip-path="url(#clip312)" cx="431.194" cy="647.11" r="14" fill="#e26f46" fill-rule="evenodd" fill-opacity="1" stroke="none"/>
<circle clip-path="url(#clip312)" cx="446.181" cy="613.411" r="14" fill="#e26f46" fill-rule="evenodd" fill-opacity="1" stroke="none"/>
<path clip-path="url(#clip310)" d="
M971.273 1061.73 L1121.82 1061.73 L1121.82 958.046 L971.273 958.046  Z
  " fill="#ffffff" fill-rule="evenodd" fill-opacity="1"/>
<polyline clip-path="url(#clip310)" style="stroke:#000000; stroke-linecap:butt; stroke-linejoin:round; stroke-width:4; stroke-opacity:1; fill:none" points="
  971.273,1061.73 1121.82,1061.73 1121.82,958.046 971.273,958.046 971.273,1061.73 
  "/>
<circle clip-path="url(#clip310)" cx="1012.53" cy="1009.89" r="23" fill="#e26f46" fill-rule="evenodd" fill-opacity="1" stroke="none"/>
<path clip-path="url(#clip310)" d="M1053.78 992.606 L1058.46 992.606 L1058.46 1006.77 L1075.45 1006.77 L1075.45 992.606 L1080.12 992.606 L1080.12 1027.17 L1075.45 1027.17 L1075.45 1010.71 L1058.46 1010.71 L1058.46 1027.17 L1053.78 1027.17 L1053.78 992.606 Z" fill="#000000" fill-rule="evenodd" fill-opacity="1" /><path clip-path="url(#clip310)" d="M1088.39 1024.62 L1093.11 1024.62 L1093.11 1010.48 L1087.95 1011.43 L1087.95 1008.74 L1093.27 1007.84 L1096.44 1007.84 L1096.44 1024.62 L1101.19 1024.62 L1101.19 1027.17 L1088.39 1027.17 L1088.39 1024.62 Z" fill="#000000" fill-rule="evenodd" fill-opacity="1" /></svg>
